<svg width="14" height="13" viewBox="0 0 14 13" fill="none" xmlns="http://www.w3.org/2000/svg">
<g id="12x10_ffffff_Arrow_R.svg" clip-path="url(#clip0_1529_940)">
<path id="Vector" d="M0.00390625 6.50063C0.00390625 6.27123 0.118606 6.04183 0.233306 5.92713C0.462706 5.81243 0.577406 5.69773 0.921506 5.69773H10.4416L6.88591 2.25673C6.65651 2.02733 6.54181 1.91263 6.54181 1.56853C6.54181 1.33913 6.65651 1.10973 6.77121 0.995025C7.00061 0.880325 7.23001 0.765625 7.45941 0.765625C7.68881 0.765625 7.91821 0.880325 8.14761 0.995025L13.9973 6.50063L8.14761 12.0062C7.91821 12.1209 7.68881 12.2356 7.45941 12.2356C7.23001 12.2356 7.00061 12.1209 6.88591 12.0062C6.65651 11.7768 6.65651 11.6621 6.54181 11.318C6.54181 11.0886 6.65651 10.9739 6.88591 10.7445L10.4416 7.30352H0.921506C0.692106 7.30352 0.462706 7.18883 0.233306 7.07413C0.118606 6.95943 0.00390625 6.73003 0.00390625 6.50063Z" fill="white"/>
</g>
<defs>
<clipPath id="clip0_1529_940">
<rect width="13.9934" height="11.47" fill="white" transform="translate(0.00390625 0.765625)"/>
</clipPath>
</defs>
</svg>
