<svg width="18" height="16" viewBox="0 0 18 16" fill="none" xmlns="http://www.w3.org/2000/svg">
<g id="in.svg" clip-path="url(#clip0_1529_859)">
<path id="Vector" d="M3.89245 5.11914H0.607422V15.9915H3.89245V5.11914Z" fill="white"/>
<path id="Vector_2" d="M12.8884 5.02148C11.0185 5.02148 9.80559 6.09408 9.60338 6.82541V5.11899H5.91406C5.9646 6.04533 5.91406 15.9913 5.91406 15.9913H9.60338V10.092C9.60338 9.75067 9.60338 9.4582 9.70448 9.21441C9.95715 8.58058 10.5131 7.89801 11.4733 7.89801C12.7368 7.89801 13.3433 8.92186 13.3433 10.3846V15.9913H17.0832V9.94567C17.0832 6.58163 15.2132 5.02148 12.8884 5.02148Z" fill="white"/>
<path id="Vector_3" d="M2.22468 0C1.01175 0 0.203125 0.828832 0.203125 1.90143C0.203125 2.92529 0.961208 3.75412 2.17414 3.75412C3.38707 3.75412 4.1957 2.92529 4.1957 1.85269C4.14516 0.828832 3.43762 0 2.22468 0Z" fill="white"/>
</g>
<defs>
<clipPath id="clip0_1529_859">
<rect width="16.88" height="15.9916" fill="white" transform="translate(0.203125)"/>
</clipPath>
</defs>
</svg>
