<svg width="21" height="20" viewBox="0 0 21 20" fill="none" xmlns="http://www.w3.org/2000/svg">
<path id="Vector" d="M10.082 7.52C9.59153 7.52 9.11205 7.66545 8.70422 7.93795C8.29638 8.21046 7.97852 8.59778 7.79081 9.05095C7.6031 9.50411 7.55399 10.0028 7.64968 10.4838C7.74538 10.9649 7.98157 11.4068 8.32841 11.7536C8.67524 12.1005 9.11713 12.3367 9.59821 12.4323C10.0793 12.528 10.5779 12.4789 11.0311 12.2912C11.4842 12.1035 11.8716 11.7856 12.1441 11.3778C12.4166 10.97 12.562 10.4905 12.562 10C12.562 9.67432 12.4979 9.35183 12.3733 9.05095C12.2486 8.75006 12.0659 8.47666 11.8357 8.24638C11.6054 8.01609 11.332 7.83341 11.0311 7.70878C10.7302 7.58415 10.4077 7.52 10.082 7.52ZM20.012 5.07C20.0068 4.29776 19.8646 3.53257 19.592 2.81C19.3913 2.28126 19.0808 1.80109 18.6808 1.40119C18.2809 1.00128 17.8008 0.690718 17.272 0.49C16.5495 0.217464 15.7843 0.0752609 15.012 0.0699999C13.722 -6.70552e-08 13.342 0 10.082 0C6.82203 0 6.44203 -6.70552e-08 5.15203 0.0699999C4.37979 0.0752609 3.6146 0.217464 2.89203 0.49C2.36329 0.690718 1.88313 1.00128 1.48322 1.40119C1.08331 1.80109 0.772749 2.28126 0.572031 2.81C0.299495 3.53257 0.157292 4.29776 0.152031 5.07C0.0820312 6.36 0.0820312 6.74 0.0820312 10C0.0820312 13.26 0.0820312 13.64 0.152031 14.93C0.162795 15.705 0.304806 16.4725 0.572031 17.2C0.771859 17.7263 1.08216 18.2037 1.48203 18.6C1.88022 19.0023 2.36142 19.3129 2.89203 19.51C3.6146 19.7825 4.37979 19.9247 5.15203 19.93C6.44203 20 6.82203 20 10.082 20C13.342 20 13.722 20 15.012 19.93C15.7843 19.9247 16.5495 19.7825 17.272 19.51C17.8026 19.3129 18.2838 19.0023 18.682 18.6C19.0819 18.2037 19.3922 17.7263 19.592 17.2C19.8643 16.4739 20.0065 15.7055 20.012 14.93C20.082 13.64 20.082 13.26 20.082 10C20.082 6.74 20.082 6.36 20.012 5.07ZM17.472 13.07C17.4399 13.6871 17.3082 14.295 17.082 14.87C16.8879 15.3497 16.5993 15.7854 16.2334 16.1514C15.8675 16.5173 15.4317 16.8059 14.952 17C14.3715 17.2136 13.7603 17.3318 13.142 17.35C12.352 17.35 12.142 17.35 10.082 17.35C8.02203 17.35 7.81203 17.35 7.02203 17.35C6.40376 17.3318 5.79252 17.2136 5.21203 17C4.71613 16.8157 4.26831 16.5217 3.90203 16.14C3.5397 15.7813 3.25988 15.3479 3.08203 14.87C2.86759 14.2901 2.75264 13.6782 2.74203 13.06C2.74203 12.27 2.74203 12.06 2.74203 10C2.74203 7.94 2.74203 7.73 2.74203 6.94C2.75264 6.32183 2.86759 5.70988 3.08203 5.13C3.26631 4.6341 3.56031 4.18628 3.94203 3.82C4.30236 3.45962 4.73529 3.18009 5.21203 3C5.79252 2.78641 6.40376 2.66821 7.02203 2.65C7.81203 2.65 8.02203 2.65 10.082 2.65C12.142 2.65 12.352 2.65 13.142 2.65C13.7603 2.66821 14.3715 2.78641 14.952 3C15.4479 3.18428 15.8958 3.47827 16.262 3.86C16.6244 4.21875 16.9042 4.65213 17.082 5.13C17.2956 5.71049 17.4138 6.32173 17.432 6.94C17.432 7.73 17.432 7.94 17.432 10C17.432 12.06 17.502 12.27 17.472 13.06V13.07ZM15.872 5.63C15.753 5.30698 15.5652 5.01364 15.3218 4.77021C15.0784 4.52678 14.785 4.33906 14.462 4.22C14.0185 4.06626 13.5514 3.99179 13.082 4C12.302 4 12.082 4 10.082 4C8.08203 4 7.86203 4 7.08203 4C6.6103 4.00461 6.1431 4.09263 5.70203 4.26C5.38396 4.37366 5.09372 4.55371 4.85062 4.7882C4.60751 5.02269 4.41709 5.30624 4.29203 5.62C4.14681 6.06537 4.07586 6.5316 4.08203 7C4.08203 7.78 4.08203 8 4.08203 10C4.08203 12 4.08203 12.22 4.08203 13C4.09195 13.4712 4.1798 13.9375 4.34203 14.38C4.46109 14.703 4.64882 14.9964 4.89224 15.2398C5.13567 15.4832 5.42902 15.6709 5.75203 15.79C6.1787 15.9469 6.62768 16.0347 7.08203 16.05C7.86203 16.05 8.08203 16.05 10.082 16.05C12.082 16.05 12.302 16.05 13.082 16.05C13.5538 16.0454 14.021 15.9574 14.462 15.79C14.785 15.6709 15.0784 15.4832 15.3218 15.2398C15.5652 14.9964 15.753 14.703 15.872 14.38C16.0394 13.9389 16.1274 13.4717 16.132 13C16.132 12.22 16.132 12 16.132 10C16.132 8 16.132 7.78 16.132 7C16.1323 6.5278 16.0441 6.05972 15.872 5.62V5.63ZM10.082 13.82C9.58085 13.82 9.0846 13.7211 8.62169 13.529C8.15879 13.3369 7.73834 13.0554 7.38441 12.7005C7.03049 12.3457 6.75006 11.9245 6.55918 11.4611C6.36829 10.9977 6.27072 10.5012 6.27203 10C6.27203 9.24405 6.49633 8.5051 6.91652 7.87669C7.33671 7.24828 7.9339 6.75866 8.6325 6.46983C9.3311 6.181 10.0997 6.10594 10.841 6.25415C11.5822 6.40236 12.2629 6.76717 12.7967 7.30241C13.3306 7.83764 13.6936 8.51924 13.8398 9.2609C13.9861 10.0026 13.909 10.771 13.6184 11.4688C13.3277 12.1666 12.8365 12.7625 12.207 13.1811C11.5775 13.5996 10.838 13.822 10.082 13.82ZM14.082 6.93C13.861 6.9066 13.6564 6.80222 13.5077 6.63697C13.359 6.47172 13.2768 6.25729 13.2768 6.035C13.2768 5.81271 13.359 5.59828 13.5077 5.43303C13.6564 5.26778 13.861 5.1634 14.082 5.14C14.3031 5.1634 14.5077 5.26778 14.6563 5.43303C14.805 5.59828 14.8873 5.81271 14.8873 6.035C14.8873 6.25729 14.805 6.47172 14.6563 6.63697C14.5077 6.80222 14.3031 6.9066 14.082 6.93Z" fill="white"/>
</svg>
