<svg width="470" height="296" viewBox="0 0 470 296" fill="none" xmlns="http://www.w3.org/2000/svg">
<g clip-path="url(#clip0_1071_1868)">
<path d="M248.032 45.1931C218.534 38.2561 197.058 44.9971 172.53 53.4601C160.441 57.6601 148.198 62.0421 135.43 63.7221C125.917 64.9751 116.306 65.3112 106.73 66.2562C96.7863 67.1268 86.9049 68.6042 77.1412 70.6802C60.7332 74.3692 32.1452 81.1802 33.9022 103.258C34.6022 112.106 40.6432 120.149 40.0342 128.997C39.2502 140.351 28.6662 149.136 21.7292 157.158C12.1532 168.225 3.52919 180.503 5.12519 195.889C6.39919 208.3 14.4562 219.206 24.3962 226.752C34.3362 234.298 46.0962 238.974 57.6812 243.594C75.3352 250.629 90.2592 258.875 104.14 271.965C112.183 279.546 120.751 287.057 131.174 290.732C145.174 295.674 163.038 291.376 168.743 276.543C171.851 268.458 172.726 259.043 177.549 251.693C182.582 244.126 193.082 237.742 202.294 238.981C217.344 240.976 223.217 252.141 230.392 263.887C233.892 269.627 238.05 274.905 243.937 278.349C254.031 284.257 264.111 281.954 274.737 279.553C286.229 276.934 297.848 274.906 309.548 273.477C329.407 271.104 349.385 272.168 369.167 274.66C387.955 277.033 415.234 289.36 430.725 272.623C437.515 265.273 438.866 255.221 436.395 245.841C432.853 232.394 425.195 217.47 425.643 203.505C426.245 182.897 435.541 169.205 446.895 153.063C452.334 145.363 456.52 136.781 456.324 127.163C455.876 104.959 441.96 87.9142 427.449 72.6122C412.938 57.3101 398.504 39.9361 383.853 26.4121" stroke="#ED725A" stroke-width="1.05" stroke-miterlimit="10"/>
<path d="M458.944 67.8595C458.945 69.0161 458.603 70.1472 457.962 71.1094C457.32 72.0717 456.407 72.822 455.339 73.2652C454.271 73.7085 453.095 73.8248 451.96 73.5995C450.826 73.3742 449.784 72.8174 448.966 71.9995C448.148 71.1817 447.591 70.1396 447.366 69.0051C447.141 67.8706 447.257 66.6948 447.7 65.6265C448.143 64.5581 448.894 63.6454 449.856 63.0036C450.818 62.3619 451.949 62.0201 453.106 62.0215C453.873 62.0206 454.632 62.1709 455.341 62.464C456.05 62.7571 456.694 63.1871 457.236 63.7293C457.778 64.2716 458.208 64.9156 458.501 65.6243C458.794 66.333 458.945 67.0926 458.944 67.8595Z" stroke="#ED725A" stroke-width="1.05" stroke-miterlimit="10"/>
<path d="M263.418 265.596C263.418 266.75 263.076 267.879 262.434 268.839C261.793 269.799 260.881 270.548 259.814 270.989C258.748 271.431 257.574 271.547 256.441 271.322C255.309 271.096 254.269 270.54 253.452 269.724C252.636 268.907 252.08 267.867 251.854 266.735C251.629 265.602 251.745 264.428 252.187 263.362C252.628 262.295 253.377 261.383 254.337 260.742C255.297 260.1 256.426 259.758 257.58 259.758C258.347 259.757 259.107 259.907 259.815 260.2C260.524 260.493 261.168 260.923 261.71 261.466C262.253 262.008 262.683 262.652 262.976 263.361C263.269 264.069 263.419 264.829 263.418 265.596Z" stroke="#ED725A" stroke-width="1.05" stroke-miterlimit="10"/>
<path d="M243.021 11.3072C243.598 11.3062 244.169 11.4191 244.702 11.6392C245.236 11.8594 245.72 12.1825 246.129 12.5902C246.537 12.9978 246.861 13.482 247.082 14.015C247.303 14.5479 247.417 15.1192 247.417 15.6962V102.496C247.415 103.661 246.951 104.777 246.127 105.6C245.302 106.423 244.185 106.885 243.021 106.885H74.5796C73.4156 106.885 72.2992 106.423 71.4761 105.6C70.653 104.777 70.1906 103.66 70.1906 102.496V15.6962C70.1906 14.5321 70.653 13.4158 71.4761 12.5927C72.2992 11.7696 73.4156 11.3072 74.5796 11.3072H243.021ZM243.021 10.2572H74.5796C73.1371 10.2572 71.7537 10.8302 70.7337 11.8502C69.7137 12.8702 69.1406 14.2537 69.1406 15.6962V102.496C69.1406 103.939 69.7137 105.322 70.7337 106.342C71.7537 107.362 73.1371 107.935 74.5796 107.935H243.021C244.464 107.935 245.848 107.362 246.869 106.343C247.89 105.323 248.465 103.939 248.467 102.496V15.6962C248.468 14.9804 248.327 14.2715 248.054 13.6099C247.781 12.9484 247.38 12.3472 246.874 11.8407C246.368 11.3343 245.768 10.9325 245.106 10.6584C244.445 10.3843 243.736 10.2432 243.021 10.2432V10.2572Z" fill="white"/>
<path d="M70.1914 23.0107H247.417V102.475C247.417 103.639 246.955 104.755 246.132 105.578C245.309 106.401 244.193 106.864 243.028 106.864H74.5804C73.4164 106.864 72.3 106.401 71.4769 105.578C70.6538 104.755 70.1914 103.639 70.1914 102.475V23.0107Z" fill="#AFB9E8"/>
<path d="M80.5026 17.5023C80.5026 17.9993 80.3552 18.4851 80.079 18.8984C79.8029 19.3117 79.4104 19.6338 78.9512 19.824C78.4921 20.0142 77.9868 20.0639 77.4993 19.967C77.0118 19.87 76.5641 19.6307 76.2126 19.2792C75.8612 18.9278 75.6218 18.48 75.5248 17.9925C75.4279 17.505 75.4777 16.9998 75.6679 16.5406C75.8581 16.0814 76.1802 15.6889 76.5934 15.4128C77.0067 15.1366 77.4925 14.9893 77.9896 14.9893C78.6561 14.9893 79.2952 15.254 79.7665 15.7253C80.2378 16.1966 80.5026 16.8358 80.5026 17.5023Z" stroke="white" stroke-width="1.05" stroke-miterlimit="10"/>
<path d="M90.2369 17.5023C90.2369 17.9993 90.0896 18.4851 89.8134 18.8984C89.5373 19.3117 89.1448 19.6338 88.6856 19.824C88.2264 20.0142 87.7212 20.0639 87.2337 19.967C86.7462 19.87 86.2984 19.6307 85.947 19.2792C85.5955 18.9278 85.3562 18.48 85.2592 17.9925C85.1623 17.505 85.212 16.9998 85.4022 16.5406C85.5924 16.0814 85.9145 15.6889 86.3278 15.4128C86.741 15.1366 87.2269 14.9893 87.7239 14.9893C88.3904 14.9893 89.0296 15.254 89.5009 15.7253C89.9722 16.1966 90.2369 16.8358 90.2369 17.5023Z" stroke="white" stroke-width="1.05" stroke-miterlimit="10"/>
<path d="M70.1914 23.0107H247.417" stroke="white" stroke-width="1.05" stroke-miterlimit="10"/>
<path d="M233.162 94.6981C231.384 92.3391 228.339 90.1621 225.966 91.7931C223.971 93.1581 223.866 96.2381 224.055 98.7931C218.479 90.8664 211.78 83.7924 204.168 77.7931C200.101 74.6011 195.418 71.6471 190.42 72.0321C185.422 72.4171 182.825 79.4381 184.12 84.7161C170.463 66.6351 155.238 53.8111 139.376 42.716C133.986 38.943 127.98 35.296 121.554 33.14C114.729 30.844 105.293 28.149 99.1541 33.483C96.5151 35.765 95.1361 39.251 94.7581 42.73C94.2961 47.028 95.0241 51.5711 96.1581 55.7151C98.9581 65.6201 103.459 74.9651 108.674 83.7711C113.889 92.5771 125.362 107.039 125.362 107.039H238.58C237.732 102.568 235.879 98.3484 233.162 94.6981Z" fill="#909DF4"/>
<path d="M173.623 89.3432C173.623 89.3432 151.881 70.4922 142.557 67.2932C133.233 64.0942 114.074 69.2322 113.857 69.2322C113.64 69.2322 96.707 106.899 96.707 106.899H166.056L173.623 89.3432Z" fill="#EF9748"/>
<path d="M214.914 140.513C216.501 142.165 218.148 143.757 219.856 145.287C221.501 146.764 223.3 148.087 224.903 149.592C225.302 149.97 225.666 150.376 226.023 150.782C227.388 152.22 228.592 153.802 229.614 155.5C229.726 155.739 229.874 155.959 230.055 156.151C230.143 156.244 230.254 156.314 230.376 156.353C230.499 156.392 230.629 156.4 230.755 156.375C230.883 156.323 230.997 156.243 231.09 156.141C231.183 156.04 231.253 155.919 231.294 155.787C231.689 154.711 231.713 153.533 231.364 152.441C231.182 151.741 230.93 151.041 230.734 150.341C230.506 149.765 230.399 149.148 230.419 148.528C235.074 150.474 238.861 153.995 243.11 156.725C243.978 157.285 245.91 157.488 246.218 156.725C246.645 155.703 240.45 151.125 237.615 148.08C239.823 149.131 241.942 150.36 243.95 151.755C245.274 152.78 246.76 153.578 248.346 154.114C249.242 154.394 251.3 154.814 250.88 153.183C250.717 152.71 250.426 152.291 250.04 151.972C247.24 149.277 243.915 147.373 241.003 144.839C244.279 146.134 247.303 148.451 250.803 148.57C251.147 148.614 251.496 148.538 251.79 148.353C251.889 148.292 251.975 148.212 252.043 148.118C252.111 148.024 252.16 147.916 252.186 147.803C252.212 147.69 252.215 147.572 252.195 147.457C252.175 147.343 252.133 147.233 252.07 147.135C251.766 146.709 251.362 146.363 250.894 146.127C247.625 144.125 244.216 141.927 240.947 139.911C242.677 140.482 244.37 141.16 246.015 141.941C247.67 142.729 249.5 143.076 251.328 142.949C251.909 142.879 252.63 142.501 252.497 141.934C252.398 141.666 252.204 141.444 251.951 141.311L240.051 133.156C238.938 132.393 237.818 131.63 236.677 130.909C235.277 130.041 233.709 129.404 232.428 128.424C231.434 127.668 230.223 127.101 229.152 126.443C226.506 124.819 223.944 123.062 221.452 121.2" fill="#FFCAA3"/>
<path d="M230.523 148.5C229.277 147.954 228.003 147.443 226.715 146.981" stroke="black" stroke-width="0.7" stroke-miterlimit="10"/>
<path d="M237.819 148.067C236.122 146.903 234.365 145.83 232.555 144.854" stroke="black" stroke-width="0.7" stroke-miterlimit="10"/>
<path d="M241.032 144.762L236.832 142.109" stroke="black" stroke-width="0.7" stroke-miterlimit="10"/>
<path d="M242.563 140.773C241.525 140.198 240.527 139.555 239.574 138.848" stroke="black" stroke-width="0.7" stroke-miterlimit="10"/>
<path d="M147.582 67.8594C156.171 70.5614 160.483 70.8064 168.162 75.5594C176.282 80.6344 196.498 101.942 196.498 101.942C196.498 101.942 223.749 121.157 233.962 128.423L215.615 145.923C195.315 133.792 174.497 119.323 159.111 101.354" fill="#EF9748"/>
<path d="M116.402 103.224C116.402 103.224 124.921 98.6528 128.68 97.7428C133.874 96.4338 140.034 96.0628 141.679 96.5668C142.456 96.8048 145.361 98.0018 146.887 99.7798C148.504 100.48 149.162 100.837 150.121 101.243C151.08 101.649 151.521 102.776 152.536 103.637C153.551 104.498 154.636 106.899 154.636 106.899C154.636 106.899 146.971 106.899 144.836 106.997C142.701 107.095 140.363 111.197 135.547 112.597" fill="#FFCAA3"/>
<path d="M133.954 64.4718C128.046 64.4228 122.292 62.8828 116.398 62.8828C105.688 62.8828 99.5417 68.4828 94.3337 76.2808C90.2867 82.499 86.7875 89.057 83.8757 95.8808C80.6137 103.441 76.9597 111.855 76.0077 120.108C75.5164 123.888 76.1622 127.728 77.8627 131.14C81.0897 137.342 88.2647 138.427 92.4507 138.896C96.6367 139.365 103.966 137.944 107.564 135.718C118.712 128.849 129.221 120.994 138.966 112.247L118.631 101.824L108.873 105.639L121.193 82.8608" fill="#EF9748"/>
<path d="M120.19 84.7363L108.871 105.666" stroke="black" stroke-width="0.7" stroke-miterlimit="10"/>
<path d="M118.631 101.852L101.131 108.642C97.1481 110.182 93.2491 113.241 90.0781 116.083" stroke="black" stroke-width="0.7" stroke-miterlimit="10"/>
<path d="M111.645 104.693L132.715 117.657" stroke="black" stroke-width="0.7" stroke-miterlimit="10"/>
<path d="M168.275 94.5508C165.475 99.1568 161.625 106.871 161.625 106.871" stroke="black" stroke-width="0.7" stroke-miterlimit="10"/>
<path d="M226.529 123.117L206.082 140.141" stroke="black" stroke-width="0.7" stroke-miterlimit="10"/>
<path d="M146.082 101.942C147.565 102.333 149.07 102.63 150.59 102.831C151.065 102.855 151.529 102.984 151.948 103.209" stroke="black" stroke-width="0.7" stroke-miterlimit="10"/>
<path d="M147.394 100.15C147.128 100.021 146.855 99.9089 146.575 99.8145C145.143 99.1834 143.603 98.8295 142.039 98.7715" stroke="black" stroke-width="0.7" stroke-miterlimit="10"/>
<path d="M142.633 107.822C143.45 107.277 144.396 106.956 145.377 106.891C147.393 106.681 149.577 107.115 151.488 106.359" stroke="black" stroke-width="0.7" stroke-miterlimit="10"/>
<path d="M66.8633 121.599C67.0828 125.597 68.3752 129.461 70.6047 132.787C72.8342 136.113 75.9185 138.777 79.5333 140.499" stroke="black" stroke-width="0.7" stroke-miterlimit="10"/>
<path d="M61.2227 121.248C61.3837 126.456 63.5327 131.503 66.8647 134.506" stroke="black" stroke-width="0.7" stroke-miterlimit="10"/>
<path d="M175.938 70.7578C182.16 76.0262 187.93 81.8075 193.185 88.0408" stroke="black" stroke-width="0.7" stroke-miterlimit="10"/>
<path d="M176.07 64.5137C180.415 67.7381 184.383 71.441 187.9 75.5527" stroke="black" stroke-width="0.7" stroke-miterlimit="10"/>
<path d="M125.881 75.0908C122.628 73.8135 119.502 72.2339 116.543 70.3727C115.235 69.6726 114.027 68.799 112.952 67.7757C111.87 66.7393 111.239 65.3187 111.195 63.8207C111.301 62.448 111.849 61.1465 112.756 60.1107C115.402 56.7787 119.686 55.0427 123.956 54.6577C128.226 54.2727 132.454 55.0917 136.598 56.0577C142.835 57.5277 149.198 59.4877 154 63.7157C155.394 64.8676 156.531 66.2982 157.339 67.9157C158.315 70.2252 158.559 72.7782 158.039 75.2308C157.481 77.6774 156.675 80.0605 155.631 82.3428" fill="#EF9748"/>
<path d="M142.683 50.4648L134.283 52.9078L134.465 57.1078L130.223 64.3459C130.223 64.3459 140.254 68.2309 144.027 76.1479C145.148 76.3507 146.305 76.1979 147.335 75.7109C148.366 75.224 149.218 74.4271 149.774 73.4319L153.883 63.7719" fill="#FFCAA3"/>
<path d="M162.431 58.8786C163.131 54.7206 164.027 50.2266 163.957 46.9226C163.901 44.1226 163.467 39.8876 161.661 37.6966C159.33 34.8966 155.095 34.8266 151.532 34.4276C145.687 33.7766 141.655 39.0686 139.919 44.0176C138.641 47.7184 138.641 51.7408 139.919 55.4416C141.529 60.5586 147.234 67.4326 154.654 66.5856C158.609 66.1376 161.668 63.2746 162.431 58.8786Z" fill="#FFCAA3"/>
<path d="M155.282 49.7998C155.205 50.4158 154.764 50.8708 154.295 50.8218C154.045 50.7467 153.833 50.5787 153.702 50.3522C153.572 50.1256 153.534 49.8578 153.595 49.6038C153.665 48.9808 154.106 48.5258 154.582 48.5818C154.831 48.6583 155.042 48.8267 155.172 49.0528C155.302 49.2789 155.341 49.5459 155.282 49.7998Z" fill="black"/>
<path d="M163.35 50.5694C163.28 51.1854 162.839 51.6404 162.363 51.5844C162.111 51.5109 161.898 51.3431 161.768 51.1161C161.637 50.8891 161.6 50.6205 161.663 50.3664C161.733 49.7504 162.174 49.2954 162.65 49.3444C162.9 49.421 163.112 49.5904 163.243 49.8181C163.373 50.0457 163.411 50.3145 163.35 50.5694Z" fill="black"/>
<path d="M159.762 49.1982C159.671 50.6365 159.671 52.079 159.762 53.5172C159.762 54.4062 159.762 55.9742 158.642 56.1773C157.828 56.1917 157.016 56.0831 156.234 55.8553" stroke="black" stroke-width="0.7" stroke-miterlimit="10"/>
<path d="M156.852 58.3957L153.821 55.8477C153.821 55.8477 151.595 58.7527 152.743 59.8097C154.584 61.5107 156.852 58.3957 156.852 58.3957Z" fill="white"/>
<path d="M161.766 38.5786C163.103 40.6786 163.866 42.3516 163.901 48.6236C164.548 48.4947 165.174 48.2781 165.763 47.9796C166.057 47.8304 166.318 47.6242 166.532 47.373C166.746 47.1219 166.908 46.8308 167.009 46.5166C167.324 45.3336 166.442 44.1646 166.393 42.9466C166.418 42.0583 166.714 41.1988 167.24 40.4826C167.666 39.9512 167.97 39.3321 168.129 38.6696C168.143 38.1902 168.044 37.7141 167.838 37.2808C167.632 36.8475 167.326 36.4694 166.946 36.1776C165.364 34.7776 163.25 34.1686 161.43 33.1186C160.548 32.6076 160.079 31.8096 159.26 31.2076C158.339 30.5275 157.355 29.939 156.32 29.4506C153.926 28.3194 151.328 27.6837 148.683 27.5816C146.16 27.4694 143.641 27.8791 141.284 28.7848C138.927 29.6906 136.782 31.073 134.984 32.8456C130.273 37.5636 128.383 46.5586 131.337 51.7456C133.003 54.6786 134.529 57.0936 134.529 57.0936C134.725 57.3946 138.792 53.7406 139.044 53.2436C139.262 52.7216 139.431 52.1802 139.548 51.6266C140.073 49.7786 141.914 49.4706 143.489 48.8966C145.785 48.0496 146.933 46.0056 147.381 43.6956C147.602 42.3608 147.713 41.0097 147.71 39.6566C147.71 39.9576 149.565 40.6156 149.81 40.6996C152.604 41.5774 155.587 41.6622 158.427 40.9446C159.278 40.771 160.08 40.4072 160.772 39.8806C160.968 39.7546 162.06 38.8796 161.766 38.5786Z" fill="#1E1611"/>
<path d="M144.652 62.876C147.003 65.0924 150.047 66.4279 153.269 66.656" stroke="black" stroke-width="0.7" stroke-miterlimit="10"/>
<path d="M150.383 45.4036C150.634 44.9185 150.999 44.5017 151.447 44.1889C151.895 43.8762 152.412 43.6768 152.954 43.608C153.495 43.5391 154.046 43.6028 154.558 43.7937C155.07 43.9845 155.527 44.2967 155.892 44.7036" stroke="black" stroke-width="0.7" stroke-miterlimit="10"/>
<path d="M160.645 45.5373C160.776 45.1642 161.024 44.8431 161.351 44.6214C161.679 44.3996 162.069 44.2888 162.465 44.3053C162.836 44.4183 163.159 44.6515 163.383 44.9683C163.608 45.2851 163.72 45.6675 163.704 46.0553" stroke="black" stroke-width="0.7" stroke-miterlimit="10"/>
<path d="M158.174 51.3896C158.014 51.8857 157.757 52.3448 157.418 52.7402C157.078 53.1355 156.663 53.459 156.197 53.6918C155.731 53.9246 155.223 54.0619 154.703 54.0957C154.183 54.1295 153.661 54.0591 153.169 53.8886C152.169 53.5218 151.354 52.7769 150.898 51.8146C150.443 50.8522 150.383 49.7493 150.733 48.7436C150.894 48.2481 151.151 47.7896 151.491 47.3948C151.83 46.9999 152.245 46.6768 152.711 46.4441C153.177 46.2115 153.685 46.074 154.205 46.0397C154.724 46.0055 155.246 46.0751 155.738 46.2446C156.738 46.6115 157.553 47.3563 158.009 48.3187C158.464 49.2811 158.524 50.3839 158.174 51.3896Z" stroke="#572A2F" stroke-width="0.7" stroke-miterlimit="10"/>
<path d="M165.723 52.3762C165.338 54.5672 163.924 56.1422 162.566 55.8762C161.208 55.6102 160.403 53.6432 160.788 51.4522C161.173 49.2612 162.58 47.6862 163.945 47.9522C165.31 48.2182 166.101 50.1852 165.723 52.3762Z" stroke="#572A2F" stroke-width="0.7" stroke-miterlimit="10"/>
<path d="M161.144 50.3119L158.379 49.7939" stroke="#572A2F" stroke-width="0.7" stroke-miterlimit="10"/>
<path d="M150.896 48.3652L142.559 49.0022" stroke="#572A2F" stroke-width="0.7" stroke-miterlimit="10"/>
<path d="M144.945 50.5061C144.903 48.4831 142.145 46.9011 140.381 47.5451C136.069 49.0921 137.525 56.8201 141.529 57.5551C142.663 57.7651 144.287 57.3241 144.693 56.0361" fill="#FFCAA3"/>
<path d="M140.066 50.9893L143.776 54.3423" stroke="black" stroke-width="0.7" stroke-miterlimit="10"/>
<path d="M143.043 48.042C143.97 48.5949 144.704 49.4214 145.143 50.408" stroke="black" stroke-width="0.7" stroke-miterlimit="10"/>
<path d="M137.918 53.915C138.471 55.567 139.605 57.317 141.418 57.611C142.055 57.7414 142.718 57.6509 143.297 57.3544C143.876 57.058 144.336 56.5732 144.603 55.98" stroke="black" stroke-width="0.7" stroke-miterlimit="10"/>
<path d="M128.398 42.5478C128.418 39.8233 128.845 37.1171 129.665 34.5188C130.499 31.9111 132.088 29.6091 134.229 27.9038C135.459 27.0397 136.792 26.3342 138.198 25.8038C139.366 25.3083 140.575 24.9149 141.81 24.6278C146.451 23.6408 151.267 25.1108 155.614 27.0078" fill="#FFC36C"/>
<path d="M157.692 27.3649C155.768 25.6586 153.264 24.7521 150.692 24.8309C150.201 24.8589 149.712 24.9221 149.229 25.0199C145.862 25.7199 142.824 27.4489 139.912 29.2199C136.013 31.6279 132.121 34.2249 129.265 37.8089C128.148 39.0418 127.437 40.5888 127.228 42.2399C127.207 43.159 127.362 44.0737 127.683 44.9349C128.329 46.6421 129.236 48.2385 130.371 49.6669C138.939 41.6519 148.571 35.3099 159.68 31.5439C159.572 29.9492 158.861 28.4553 157.692 27.3649Z" fill="#FFC36C"/>
<path d="M128.957 38.2427C134.205 31.6434 141.454 26.9269 149.614 24.8027" stroke="black" stroke-width="0.7" stroke-miterlimit="10"/>
<path d="M132.715 39.3975C133.677 41.2838 134.931 43.0061 136.432 44.5005" stroke="black" stroke-width="0.7" stroke-miterlimit="10"/>
<path d="M141.164 31.8164C142.267 34.1356 143.627 36.3239 145.217 38.3404" stroke="black" stroke-width="0.7" stroke-miterlimit="10"/>
<path d="M150.133 26.9941C151.984 28.9063 153.56 31.0667 154.816 33.4131" stroke="black" stroke-width="0.7" stroke-miterlimit="10"/>
<path d="M153.227 25.9014C154.83 27.9117 156.18 30.1124 157.245 32.4534" stroke="black" stroke-width="0.7" stroke-miterlimit="10"/>
<path d="M128.508 40.5254C129.063 43.3471 130.616 45.8744 132.883 47.6444" stroke="black" stroke-width="0.7" stroke-miterlimit="10"/>
<path d="M123.559 61.6719C127.654 63.2049 131.791 64.7519 135.459 67.1669C139.127 69.5819 142.795 72.9769 144.097 77.1489" stroke="black" stroke-width="0.7" stroke-miterlimit="10"/>
<path d="M146.883 75.8817C148.776 74.9762 150.271 73.4068 151.083 71.4717" stroke="black" stroke-width="0.7" stroke-miterlimit="10"/>
<path d="M111.184 63.3799C113.081 74.2579 127.431 72.1789 134.116 75.5529" stroke="black" stroke-width="0.7" stroke-miterlimit="10"/>
<path d="M158.197 71.2822C157.992 72.7942 157.38 74.2219 156.426 75.4122C154.942 77.1412 152.625 77.8552 150.434 78.4852" stroke="black" stroke-width="0.7" stroke-miterlimit="10"/>
<path d="M152.414 75.8818C153.408 82.7208 154.416 90.3858 154.101 97.2949" stroke="black" stroke-width="0.7" stroke-miterlimit="10"/>
<path d="M137.211 74.3066C138.247 77.1486 137.757 84.8557 137.645 91.8067" stroke="black" stroke-width="0.7" stroke-miterlimit="10"/>
<path d="M46.4258 163.591H211.052V269.116C211.052 270.28 210.589 271.396 209.766 272.219C208.943 273.043 207.827 273.505 206.663 273.505H50.8148C49.6508 273.505 48.5344 273.043 47.7113 272.219C46.8882 271.396 46.4258 270.28 46.4258 269.116V163.591Z" fill="#F3F2E7"/>
<path d="M206.656 149.367C207.821 149.367 208.938 149.829 209.762 150.652C210.586 151.475 211.05 152.591 211.052 153.756V269.116C211.05 270.281 210.586 271.397 209.762 272.22C208.938 273.043 207.821 273.505 206.656 273.505H50.8148C49.6508 273.505 48.5344 273.042 47.7113 272.219C46.8882 271.396 46.4258 270.28 46.4258 269.116V153.742C46.4258 152.578 46.8882 151.461 47.7113 150.638C48.5344 149.815 49.6508 149.353 50.8148 149.353H206.656M206.656 148.303H50.8148C49.3741 148.306 47.9935 148.881 46.9754 149.9C45.9573 150.92 45.3847 152.301 45.3828 153.742V269.102C45.3828 270.544 45.9558 271.928 46.9759 272.948C47.9959 273.968 49.3793 274.541 50.8218 274.541H206.656C208.099 274.541 209.483 273.968 210.504 272.948C211.525 271.928 212.1 270.545 212.102 269.102V153.742C212.098 152.299 211.523 150.917 210.502 149.897C209.482 148.878 208.098 148.305 206.656 148.303Z" fill="white"/>
<path d="M58.9539 156.899C58.9553 157.504 58.7771 158.096 58.4418 158.6C58.1065 159.104 57.6293 159.497 57.0704 159.73C56.5116 159.962 55.8963 160.024 55.3025 159.907C54.7086 159.79 54.1629 159.499 53.7344 159.071C53.3059 158.644 53.0138 158.099 52.8952 157.505C52.7766 156.911 52.8368 156.296 53.0681 155.737C53.2994 155.177 53.6915 154.699 54.1947 154.363C54.6979 154.026 55.2896 153.847 55.8949 153.847C56.705 153.847 57.482 154.168 58.0555 154.74C58.629 155.312 58.9521 156.089 58.9539 156.899Z" stroke="white" stroke-width="1.05" stroke-miterlimit="10"/>
<path d="M67.7356 159.944C69.4212 159.944 70.7876 158.577 70.7876 156.892C70.7876 155.206 69.4212 153.84 67.7356 153.84C66.05 153.84 64.6836 155.206 64.6836 156.892C64.6836 158.577 66.05 159.944 67.7356 159.944Z" stroke="white" stroke-width="1.05" stroke-miterlimit="10"/>
<path d="M46.4258 163.591H211.052" stroke="white" stroke-width="1.05" stroke-miterlimit="10"/>
<path d="M195.231 273.506C193.025 268.065 190.025 262.982 186.327 258.421C184.073 255.621 181.427 252.996 178.13 251.771C174.833 250.546 170.682 251.071 168.435 253.871C166.713 255.971 166.384 258.946 166.125 261.704C160.665 255.852 155.142 249.93 148.485 245.604C141.828 241.278 133.785 238.17 126.043 239.864C117.482 241.712 117.482 252.52 117.482 252.52C117.482 252.52 112.239 245.17 111.77 244.484C108.246 239.415 104.338 234.625 100.08 230.155C95.9361 225.731 91.9951 221.055 87.3331 217.205C82.6711 213.355 75.1321 208.441 68.8811 210.772C65.6261 211.983 64.73 214.804 65.451 218.059C66.1511 221.104 66.48 224.156 67.425 227.159C62.168 221.3 56.19 215.903 49.225 212.256C44.22 209.624 33.776 205.158 28.582 209.456C27.8621 210.132 27.292 210.952 26.9085 211.862C26.5251 212.773 26.3369 213.753 26.356 214.741C26.125 226.872 34.882 239.906 41.882 248.866C49.106 258.057 57.814 266.198 66.8371 273.506H195.231Z" fill="#FFDD99"/>
<path d="M163.597 218.724C162.666 223.883 162.939 229.224 162.967 234.474C162.995 239.724 163.415 243.189 161.511 247.97C159.789 252.282 156.198 253.752 154.322 257.98C153.363 260.129 149.744 273.499 149.744 273.499H101.115C101.115 273.499 99.7145 252.499 107.247 234.558C114.779 216.617 124.124 213.411 124.124 213.411L151.781 206.243L163.597 218.724Z" fill="#735D9D"/>
<path d="M227.312 187.378C228.754 185.642 230.77 184.578 232.499 183.129C234.088 181.827 235.299 180 236.601 178.418C238.133 176.422 239.559 174.348 240.871 172.202C242.446 170.049 244.236 168.063 246.212 166.273C246.499 166.028 246.737 165.731 246.912 165.398C246.98 165.244 247.014 165.077 247.012 164.909C247.01 164.741 246.972 164.576 246.902 164.423C246.831 164.271 246.728 164.136 246.601 164.026C246.474 163.916 246.324 163.835 246.163 163.788C244.747 163.508 243.279 163.677 241.963 164.271C241.165 164.565 238.463 165.517 238.309 164.005C238.12 162.29 239.555 159.805 240.108 158.195C240.808 156.13 241.557 154.058 242.138 151.944C242.719 149.83 242.565 146.071 241.494 146.008C240.423 145.945 241.228 146.589 240.948 146.708C241.396 146.12 240.619 144.762 239.975 144.363C239.331 143.964 238.498 145.266 238.309 145.973C238.526 145.273 237.917 144.139 237.406 144.097C236.657 144.027 236.076 144.734 235.628 145.315C235.241 145.935 234.743 146.478 234.158 146.918C234.163 146.422 234.09 145.928 233.941 145.455C233.451 145.175 232.891 145.63 232.541 146.05C225.373 154.513 220.522 165.006 212.57 173.154" fill="#FFCAA3"/>
<path d="M238.477 162.843C238.477 164.943 238.477 167.008 238.316 169.087" stroke="black" stroke-width="0.7" stroke-miterlimit="10"/>
<path d="M240.724 146.238C240.101 148.205 238.89 149.871 237.98 151.698C236.538 154.61 235.243 157.592 233.906 160.553" stroke="black" stroke-width="0.7" stroke-miterlimit="10"/>
<path d="M238.26 145.854C237.821 146.775 237.321 147.666 236.762 148.521C236.167 149.431 235.509 150.299 234.865 151.188C233.049 153.721 231.412 156.378 229.965 159.14" stroke="black" stroke-width="0.7" stroke-miterlimit="10"/>
<path d="M233.914 147.261C233.369 148.262 232.691 149.186 231.898 150.005C229.563 152.703 227.561 155.671 225.934 158.846" stroke="black" stroke-width="0.7" stroke-miterlimit="10"/>
<path d="M137.828 209.043C146.529 205.403 152.234 201.581 160.844 197.703C168.614 194.203 179.513 191.333 187.171 187.602C197.762 182.436 207.695 176.738 216.396 168.926L232.216 185.572C232.216 185.572 209.879 208.385 202.06 212.83C183.258 223.54 176.412 225.549 156.861 235.769" fill="#735D9D"/>
<path d="M162.742 232.905C162.856 228.962 163.749 225.079 165.367 221.481" stroke="black" stroke-width="0.7" stroke-miterlimit="10"/>
<path d="M211.125 173.314L226.805 190.919" stroke="black" stroke-width="0.7" stroke-miterlimit="10"/>
<path d="M135.303 257.343C141.939 257.469 148.54 258.512 154.294 262.012C155.584 262.763 156.702 263.778 157.574 264.99C158.446 266.202 159.053 267.585 159.355 269.047C159.994 271.71 160.2 274.459 159.964 277.188C159.954 277.313 159.907 277.431 159.828 277.529C159.749 277.626 159.643 277.698 159.523 277.734C159.197 277.733 158.875 277.654 158.585 277.503C158.585 277.503 159.152 280.177 158.585 280.73C158.165 281.122 157.381 280.59 157.08 280.268C156.765 279.851 156.493 279.403 156.268 278.931C156.268 278.931 156.66 280.471 156.324 280.737C155.834 281.129 154.399 280.135 154.063 279.127C153.853 279.701 153.51 280.226 152.985 280.086C151.326 279.645 150.031 277.286 148.666 276.138C146.853 274.591 144.417 274.486 142.156 274.521C141.115 274.559 140.073 274.538 139.034 274.458C138.003 274.277 136.982 274.044 135.975 273.758C134.027 273.385 132.055 273.151 130.074 273.058" fill="#FFCAA3"/>
<path d="M147.582 271.146C149.402 271.902 151.334 272.749 152.356 274.303C152.647 274.774 152.882 275.277 153.056 275.801C153.448 276.886 153.756 277.999 154.057 279.112" stroke="black" stroke-width="0.7" stroke-miterlimit="10"/>
<path d="M150.164 267.843C151.215 268.477 152.196 269.221 153.09 270.062C153.991 270.904 154.684 271.944 155.113 273.1C155.317 273.768 155.47 274.452 155.568 275.144C155.801 276.572 156.035 277.995 156.268 279.414" stroke="black" stroke-width="0.7" stroke-miterlimit="10"/>
<path d="M153.719 265.596C155.45 266.893 156.782 268.652 157.562 270.671C158.173 272.483 158.554 274.364 158.696 276.271L158.906 278.07" stroke="black" stroke-width="0.7" stroke-miterlimit="10"/>
<path d="M127.981 210.331C127.981 210.331 114.254 212.361 108.99 215.392C100.751 220.124 97.1317 227.341 91.8817 239.591C86.6317 251.841 84.5037 257.21 84.4547 261.291C84.3777 267.269 87.0657 273.527 98.0557 273.527H133.056L140.126 257.014L112.861 252.751L120.386 235.132" fill="#735D9D"/>
<path d="M140.175 256.986L112.91 252.716L120.435 235.104" stroke="black" stroke-width="0.7" stroke-miterlimit="10"/>
<path d="M103.23 255.242C103.44 255.242 107.584 252.652 112.911 252.722" stroke="black" stroke-width="0.7" stroke-miterlimit="10"/>
<path d="M132.652 255.81L125.176 273.499" stroke="black" stroke-width="0.7" stroke-miterlimit="10"/>
<path d="M149.281 214.538C149.631 212.607 149.647 210.63 149.33 208.693" stroke="black" stroke-width="0.7" stroke-miterlimit="10"/>
<path d="M120.23 214.069C121.885 217.884 124.928 220.927 128.742 222.581C133.341 224.597 139.585 224.968 143.981 222.273C145.876 221.145 147.392 219.478 148.335 217.485" stroke="black" stroke-width="0.7" stroke-miterlimit="10"/>
<path d="M197.66 221.153C205.873 216.96 213.333 211.435 219.738 204.801" stroke="black" stroke-width="0.7" stroke-miterlimit="10"/>
<path d="M212.945 217.191C216.921 214.112 220.643 210.717 224.075 207.041" stroke="black" stroke-width="0.7" stroke-miterlimit="10"/>
<path d="M81.4946 250.966C79.765 256.639 79.1494 262.594 79.6816 268.501" stroke="black" stroke-width="0.7" stroke-miterlimit="10"/>
<path d="M76.0199 251.806C74.9237 254.985 74.301 258.308 74.1719 261.669" stroke="black" stroke-width="0.7" stroke-miterlimit="10"/>
<path d="M132.592 193.454L125.081 198.48L126.705 203.849L124.479 211.941C124.407 212.195 124.391 212.461 124.433 212.721C124.476 212.981 124.575 213.229 124.724 213.446C126.122 215.479 128.008 217.127 130.21 218.239C132.412 219.351 134.859 219.891 137.324 219.809C145.297 219.809 145.185 214.51 145.185 214.51L146.641 203.247" fill="#FFCAA3"/>
<path d="M147.692 192.782C145.627 188.932 144.451 186.552 142.281 183.906C140.447 181.659 137.381 178.481 134.518 177.851C130.815 177.039 127.329 179.706 124.179 181.659C118.999 184.858 119.09 191.753 120.84 196.884C122.184 200.832 124.963 202.337 128.463 204.745C133.041 207.888 143.002 209.309 147.272 205.865C150.471 203.289 149.876 196.856 147.692 192.782Z" fill="#FFCAA3"/>
<path d="M136.624 192.439C136.653 192.61 136.633 192.786 136.566 192.947C136.499 193.107 136.389 193.245 136.247 193.346C136.105 193.446 135.938 193.504 135.764 193.514C135.591 193.524 135.418 193.484 135.266 193.4C135.114 193.316 134.989 193.191 134.905 193.039C134.821 192.887 134.781 192.714 134.79 192.541C134.8 192.367 134.858 192.2 134.958 192.058C135.059 191.916 135.197 191.806 135.357 191.739C135.618 191.672 135.894 191.708 136.129 191.838C136.365 191.968 136.542 192.183 136.624 192.439Z" fill="black"/>
<path d="M143.974 188.392C143.995 188.564 143.968 188.737 143.896 188.893C143.823 189.05 143.709 189.183 143.565 189.278C143.421 189.372 143.253 189.425 143.081 189.429C142.909 189.434 142.739 189.39 142.59 189.303C142.441 189.216 142.32 189.089 142.239 188.937C142.159 188.784 142.123 188.612 142.135 188.44C142.147 188.269 142.207 188.103 142.308 187.964C142.409 187.824 142.547 187.716 142.707 187.651C142.973 187.588 143.253 187.63 143.489 187.768C143.725 187.906 143.898 188.13 143.974 188.392Z" fill="black"/>
<path d="M140.043 190.982C140.888 191.68 141.831 192.248 142.843 192.669C143.459 192.949 145.51 193.502 145.055 194.496C144.642 195.12 144.137 195.677 143.557 196.148" stroke="black" stroke-width="0.7" stroke-miterlimit="10"/>
<path d="M137.082 207.678C139.392 208.252 143.781 208.378 147.106 206.278" stroke="black" stroke-width="0.7" stroke-miterlimit="10"/>
<path d="M130.836 192.242C130.836 189.918 132.362 187.692 134.861 188.133" stroke="black" stroke-width="0.7" stroke-miterlimit="10"/>
<path d="M139.461 186.482C139.46 186.099 139.57 185.723 139.777 185.4C139.985 185.077 140.281 184.821 140.63 184.662C140.97 184.475 141.356 184.385 141.744 184.404C142.132 184.422 142.507 184.548 142.828 184.767" stroke="black" stroke-width="0.7" stroke-miterlimit="10"/>
<path d="M129.081 198.969C127.758 197.352 124.524 197.8 123.481 199.473C120.954 203.484 127.072 208.853 130.81 206.893C131.867 206.34 132.91 204.94 132.413 203.638" fill="#FFCAA3"/>
<path d="M125.422 202.477L130.581 202.841" stroke="black" stroke-width="0.7" stroke-miterlimit="10"/>
<path d="M125.938 198.157C127.038 198.026 128.152 198.236 129.129 198.759" stroke="black" stroke-width="0.7" stroke-miterlimit="10"/>
<path d="M125.531 206.243C127.036 207.237 129.08 207.937 130.732 207.027C131.334 206.726 131.815 206.229 132.097 205.619C132.38 205.009 132.446 204.32 132.286 203.667" stroke="black" stroke-width="0.7" stroke-miterlimit="10"/>
<path d="M140.845 196.534C140.509 197.78 140.922 199.411 142.35 199.67C142.886 199.757 143.436 199.654 143.905 199.379C144.373 199.105 144.732 198.675 144.919 198.165" stroke="black" stroke-width="0.7" stroke-miterlimit="10"/>
<path d="M265.969 44.2129H430.763V121.374C430.763 122.538 430.3 123.654 429.477 124.477C428.654 125.301 427.538 125.763 426.374 125.763H270.358C269.194 125.763 268.077 125.301 267.254 124.477C266.431 123.654 265.969 122.538 265.969 121.374V44.2129Z" fill="#D5D8BC"/>
<path d="M426.387 32.509C427.551 32.509 428.667 32.9714 429.491 33.7945C430.314 34.6176 430.776 35.734 430.776 36.898V121.346C430.776 122.51 430.314 123.626 429.491 124.45C428.667 125.273 427.551 125.735 426.387 125.735H270.357C269.193 125.735 268.077 125.273 267.253 124.45C266.43 123.626 265.968 122.51 265.968 121.346V36.898C265.968 35.734 266.43 34.6176 267.253 33.7945C268.077 32.9714 269.193 32.509 270.357 32.509H426.387ZM426.387 31.459H270.357C268.915 31.4608 267.533 32.0345 266.513 33.0541C265.493 34.0737 264.92 35.456 264.918 36.898V121.346C264.92 122.788 265.493 124.17 266.513 125.19C267.533 126.21 268.915 126.783 270.357 126.785H426.387C427.829 126.783 429.211 126.21 430.231 125.19C431.251 124.17 431.824 122.788 431.826 121.346V36.898C431.824 35.456 431.251 34.0737 430.231 33.0541C429.211 32.0345 427.829 31.4608 426.387 31.459Z" fill="white"/>
<path d="M273.758 36.1906C274.256 36.1892 274.742 36.3354 275.156 36.6107C275.571 36.886 275.894 37.278 276.085 37.7371C276.276 38.1961 276.327 38.7017 276.231 39.1896C276.135 39.6775 275.896 40.1259 275.545 40.4781C275.194 40.8302 274.746 41.0703 274.258 41.1678C273.77 41.2654 273.265 41.216 272.805 41.026C272.346 40.836 271.953 40.5139 271.676 40.1005C271.4 39.6871 271.252 39.201 271.252 38.7036C271.252 38.0384 271.516 37.4002 271.986 36.9291C272.456 36.4581 273.093 36.1925 273.758 36.1906ZM273.758 35.1406C273.054 35.1406 272.365 35.3496 271.779 35.7411C271.193 36.1326 270.736 36.6891 270.467 37.3401C270.197 37.9912 270.126 38.7076 270.264 39.3987C270.401 40.0899 270.741 40.7248 271.239 41.2231C271.737 41.7213 272.372 42.0607 273.063 42.1982C273.754 42.3357 274.471 42.2651 275.122 41.9954C275.773 41.7257 276.329 41.2691 276.721 40.6831C277.112 40.0972 277.321 39.4083 277.321 38.7036C277.319 37.7592 276.943 36.854 276.276 36.1862C275.608 35.5185 274.703 35.1425 273.758 35.1406Z" fill="white"/>
<path d="M283.504 36.1906C284.001 36.1906 284.486 36.338 284.9 36.6142C285.313 36.8903 285.635 37.2828 285.825 37.7419C286.016 38.2011 286.065 38.7064 285.968 39.1939C285.871 39.6814 285.632 40.1291 285.281 40.4806C284.929 40.832 284.481 41.0714 283.994 41.1684C283.506 41.2653 283.001 41.2156 282.542 41.0253C282.083 40.8351 281.69 40.513 281.414 40.0998C281.138 39.6865 280.991 39.2007 280.991 38.7036C280.99 38.3734 281.054 38.0462 281.18 37.7409C281.306 37.4356 281.491 37.1582 281.725 36.9246C281.958 36.6911 282.236 36.506 282.541 36.38C282.846 36.2541 283.173 36.1897 283.504 36.1906ZM283.504 35.1406C282.799 35.1392 282.109 35.347 281.522 35.7377C280.935 36.1284 280.478 36.6843 280.207 37.3353C279.936 37.9862 279.865 38.7028 280.001 39.3944C280.138 40.0861 280.477 40.7216 280.975 41.2206C281.473 41.7196 282.108 42.0596 282.799 42.1977C283.49 42.3357 284.207 42.2656 284.858 41.9961C285.51 41.7266 286.067 41.2699 286.459 40.6839C286.85 40.0978 287.06 39.4086 287.06 38.7036C287.058 37.7604 286.683 36.8563 286.016 36.1887C285.35 35.5211 284.447 35.1443 283.504 35.1406Z" fill="white"/>
<path d="M265.969 44.2129H430.777" stroke="white" stroke-width="1.05" stroke-miterlimit="10"/>
<path d="M408.27 111.162C405.183 106.009 401.914 100.661 396.846 97.5115C391.778 94.3615 384.358 94.2495 380.571 98.9115C377.218 103.034 377.841 109.041 378.646 114.312C374.916 109.546 370.557 105.308 365.689 101.711C361.944 98.9535 357.814 96.5595 353.271 95.6915C348.553 94.7955 343.163 95.7825 339.271 98.7015C333.986 102.691 334.063 108.964 334.581 115.012C328.169 102.852 321.036 90.7845 311.159 81.0685C308.604 78.5485 305.601 76.3715 302.143 75.4055C300.162 74.8525 297.943 74.7475 296.151 75.7835C293.449 77.3585 292.735 80.9145 292.651 84.0435C292.558 87.8185 292.991 91.5882 293.939 95.2435C292.218 93.3613 289.948 92.0683 287.45 91.5475C286.075 91.3014 284.664 91.3475 283.308 91.6827C281.952 92.0178 280.682 92.6346 279.58 93.4929C278.478 94.3512 277.569 95.4318 276.912 96.6645C276.255 97.8971 275.865 99.2542 275.767 100.647C275.431 106.751 279.141 112.548 281.983 117.707C283.061 119.66 284.174 121.613 285.399 123.482C285.637 123.846 286.547 125.659 287.1 125.659H416.446C413.723 121.123 410.993 115.712 408.27 111.162Z" fill="#B5AE6B"/>
<mask id="mask0_1071_1868" style="mask-type:luminance" maskUnits="userSpaceOnUse" x="265" y="32" width="166" height="94">
<path d="M426.388 32.5078H270.358C267.934 32.5078 265.969 34.4728 265.969 36.8968V121.345C265.969 123.769 267.934 125.734 270.358 125.734H426.388C428.812 125.734 430.777 123.769 430.777 121.345V36.8968C430.777 34.4728 428.812 32.5078 426.388 32.5078Z" fill="white"/>
</mask>
<g mask="url(#mask0_1071_1868)">
<path d="M419.59 119.952L376.337 37.0579L364.045 36.3369L354.392 44.2119L329.562 62.2649L357.479 144.067L419.59 119.952Z" fill="white"/>
<path d="M338.328 61.0742C339.546 62.0738 340.972 62.7865 342.503 63.1598C344.033 63.533 345.628 63.5571 347.169 63.2302" stroke="black" stroke-width="0.7" stroke-miterlimit="10"/>
<path d="M350.195 62.2648C353.244 61.2426 355.886 59.2706 357.733 56.6377C359.579 54.0049 360.534 50.8498 360.457 47.6348" stroke="black" stroke-width="0.7" stroke-miterlimit="10"/>
<path d="M407.789 89.1308C400.299 74.8648 377.843 29.8827 371.921 32.1017C365.124 34.6427 357.473 41.2018 357.473 41.2018C357.473 41.2018 361.141 52.9268 361.421 54.0328C362.433 58.0928 363.481 62.1388 364.564 66.1708C367.245 76.2228 369.639 86.4288 372.964 96.2708C376.331 106.288 380.062 116.2 384.08 125.979C385.697 129.899 386.992 134.491 390.058 137.557C391.794 139.328 394.258 140.567 396.701 140.357C398.4 140.087 400.031 139.491 401.503 138.6C408.181 135.1 426.808 126.749 426.808 126.749C426.808 126.749 417.225 107.135 407.789 89.1308Z" fill="#4C4139"/>
<path d="M369.632 143.983C367.812 137.361 364.697 131.264 362.394 124.824C359.377 116.424 356.696 107.863 353.581 99.4701C348.835 86.6671 342.101 68.9711 336.949 56.3291C336.949 56.3291 327.499 61.7471 325.595 63.0631C323.691 64.3791 324.104 67.5081 324.104 67.5081C331.629 95.5501 354.4 159.243 354.4 159.243C357.102 157.843 363.787 154.063 366.482 152.635C370.038 150.759 370.654 147.707 369.632 143.983Z" fill="#4C4139"/>
<path d="M327.484 61.8867C336.22 75.3057 343.017 86.2257 352.124 99.3998" stroke="black" stroke-width="0.7" stroke-miterlimit="10"/>
<path d="M369.332 35.4902C371.143 53.2936 372.246 71.1459 372.643 89.0473" stroke="black" stroke-width="0.7" stroke-miterlimit="10"/>
</g>
<path d="M278.667 130.51C276.837 131.91 274.971 133.23 273.067 134.472C271.219 135.676 269.231 136.698 267.418 137.972C266.963 138.28 266.55 138.63 266.13 138.973C264.557 140.181 263.123 141.559 261.853 143.082C261.703 143.301 261.521 143.497 261.314 143.663C261.208 143.742 261.083 143.793 260.953 143.812C260.822 143.83 260.688 143.815 260.565 143.768C260.444 143.69 260.343 143.588 260.267 143.467C260.19 143.346 260.142 143.21 260.124 143.068C259.904 141.942 260.064 140.775 260.579 139.75C260.866 139.05 261.216 138.434 261.524 137.769C261.837 137.232 262.037 136.636 262.112 136.019C257.212 137.223 252.928 140.121 248.308 142.165C247.363 142.578 245.438 142.494 245.235 141.682C244.976 140.611 251.801 137.034 255.077 134.472C252.73 135.167 250.445 136.055 248.245 137.125C246.777 137.932 245.184 138.488 243.534 138.77C242.61 138.917 240.51 139.015 241.175 137.461C241.414 137.021 241.767 136.654 242.197 136.397C245.354 134.164 248.959 132.806 252.228 130.741C248.784 131.518 245.452 133.345 241.952 132.918C241.606 132.911 241.274 132.782 241.014 132.554C240.926 132.478 240.853 132.386 240.801 132.282C240.749 132.178 240.718 132.065 240.709 131.95C240.701 131.834 240.715 131.718 240.752 131.607C240.789 131.497 240.846 131.395 240.923 131.308C241.288 130.931 241.739 130.65 242.239 130.489C245.781 129.012 249.491 127.353 253.033 125.883C251.225 126.19 249.439 126.611 247.685 127.143C245.928 127.665 244.067 127.725 242.281 127.318C241.714 127.157 241.063 126.674 241.28 126.135C241.418 125.884 241.645 125.694 241.917 125.603L254.958 119.387C256.183 118.806 257.401 118.225 258.64 117.686C261.335 116.531 263.939 115.201 266.641 114.046C269.473 112.828 272.325 111.649 275.195 110.511" fill="#FFCAA3"/>
<path d="M262.008 135.998C263.331 135.648 264.668 135.34 266.012 135.088" stroke="black" stroke-width="0.7" stroke-miterlimit="10"/>
<path d="M254.875 134.436C256.732 133.552 258.634 132.764 260.573 132.077" stroke="black" stroke-width="0.7" stroke-miterlimit="10"/>
<path d="M252.207 130.685L256.75 128.711" stroke="black" stroke-width="0.7" stroke-miterlimit="10"/>
<path d="M251.305 126.498C252.421 126.095 253.509 125.616 254.56 125.063" stroke="#FFCAA3" stroke-width="0.7" stroke-miterlimit="10"/>
<path d="M325.594 63.0645C322.523 65.0118 319.676 67.2912 317.103 69.8615C313.813 73.4455 294.444 96.9165 294.444 96.9165C294.444 96.9165 274.606 108.879 263.238 115.488L275.684 135.739C275.684 135.739 298.728 127.451 310.488 119.198C321.17 111.686 341.624 87.0955 341.624 87.0955" fill="#4C4139"/>
<path d="M333.699 96.9161L327.469 77.54" stroke="black" stroke-width="0.7" stroke-miterlimit="10"/>
<path d="M273.703 109.328L287.493 130.755" stroke="black" stroke-width="0.7" stroke-miterlimit="10"/>
<path d="M272.008 129.768L283.453 124.469" stroke="black" stroke-width="0.7" stroke-miterlimit="10"/>
<path d="M279.668 124.21C279.696 124.461 279.623 124.714 279.465 124.911C279.307 125.109 279.076 125.235 278.825 125.263C278.573 125.291 278.321 125.218 278.123 125.06C277.926 124.901 277.799 124.671 277.771 124.42C277.758 124.295 277.768 124.169 277.803 124.049C277.838 123.928 277.897 123.816 277.975 123.718C278.053 123.62 278.15 123.539 278.26 123.479C278.37 123.418 278.49 123.38 278.615 123.366C278.739 123.352 278.866 123.363 278.986 123.398C279.106 123.433 279.219 123.491 279.316 123.57C279.414 123.648 279.496 123.745 279.556 123.855C279.616 123.964 279.655 124.085 279.668 124.21Z" stroke="black" stroke-width="0.7" stroke-miterlimit="10"/>
<path d="M274.08 126.743C274.61 126.743 275.039 126.314 275.039 125.784C275.039 125.255 274.61 124.825 274.08 124.825C273.55 124.825 273.121 125.255 273.121 125.784C273.121 126.314 273.55 126.743 274.08 126.743Z" stroke="black" stroke-width="0.7" stroke-miterlimit="10"/>
<path d="M294.311 97.2104L294.262 96.8184C296.908 96.0304 299.42 94.8506 301.717 93.3184" stroke="black" stroke-width="0.7" stroke-miterlimit="10"/>
<path d="M303.641 74.3768C307.401 69.848 311.965 66.0513 317.102 63.1768" stroke="black" stroke-width="0.7" stroke-miterlimit="10"/>
<path d="M306.66 64.0727C310.214 61.4286 314.085 59.2392 318.182 57.5557" stroke="black" stroke-width="0.7" stroke-miterlimit="10"/>
<path d="M344.601 27.2168L347.401 35.4208L357.285 44.9758C357.285 44.9758 357.544 50.6668 351.951 56.6308C346.358 62.5948 340.394 58.5768 340.394 58.5768L333.191 48.0418" fill="#FFCAA3"/>
<path d="M321.463 48.5949C320.329 44.9549 318.894 37.0939 319.006 34.1049C319.024 31.5526 319.913 29.0829 321.526 27.1049C323.675 24.5849 328.722 25.4879 331.949 25.1799C337.248 24.6759 340.552 30.9549 342.05 35.4489C343.191 38.9069 343.737 42.4489 342.568 45.9909C340.664 51.7239 334.553 57.5129 328.085 55.9519C324.571 55.1259 322.583 52.1229 321.463 48.5949Z" fill="#FFCAA3"/>
<path d="M349.605 26.1879C348.751 25.2779 347.589 24.5709 347.211 23.3879C347.001 22.7369 346.672 20.7699 346.462 20.1119C345.279 16.4579 342.213 15.2119 338.762 15.8349C338.384 12.3349 334.681 12.0059 331.636 11.9709C330.361 12.0201 329.094 11.7632 327.94 11.2219C326.736 10.5779 325.651 9.67486 324.244 9.53486C322.975 9.45456 321.717 9.79941 320.667 10.5149C317.055 12.8879 316.026 17.4799 311.567 18.8659C310.167 19.3069 308.711 19.4399 307.507 20.3499C307.052 20.6808 306.667 21.0987 306.375 21.5793C306.083 22.06 305.89 22.5938 305.806 23.1499C305.624 24.7529 306.688 25.7259 307.78 26.7059C308.415 27.2258 308.919 27.8873 309.252 28.6374C309.585 29.3874 309.738 30.2052 309.698 31.0249C309.58 32.0688 309.409 33.1061 309.187 34.1329C308.902 35.5371 309.027 36.9936 309.549 38.3282C310.07 39.6627 310.965 40.8187 312.127 41.6579C312.645 42.0359 313.352 42.3579 315.263 42.8059C316.607 43.0999 320.093 42.5959 320.093 42.5959C319.68 40.2804 319.4 37.9432 319.253 35.5959C319.261 33.7765 319.847 32.0068 320.926 30.5419C321.857 29.2749 323.887 28.8269 325.399 28.8969C327.66 28.9949 329.823 30.2409 332.077 29.9819C333.013 29.8616 333.898 29.4835 334.632 28.8899C337.663 30.8499 340.799 33.7339 341.492 37.2479C341.492 37.4229 341.968 39.5019 341.814 39.5369C344.411 38.9909 347.68 38.7809 348.814 35.9459C349.213 34.9659 349.01 33.9439 349.318 32.9499C349.57 32.1309 350.305 31.5499 350.648 30.7379C351.341 29.2469 350.739 27.3989 349.605 26.1879Z" fill="#2C221D"/>
<path d="M338.812 36.8422C338.946 34.5812 342.068 32.9292 344.042 33.7272C348.802 35.6452 346.842 44.2272 342.327 44.8782C341.046 45.0602 339.247 44.4932 338.827 43.0372" fill="#FFCAA3"/>
<path d="M344.244 37.5986L339.953 41.1896" stroke="black" stroke-width="0.7" stroke-miterlimit="10"/>
<path d="M341.051 34.1396C340.001 34.7229 339.155 35.6148 338.629 36.6947" stroke="black" stroke-width="0.7" stroke-miterlimit="10"/>
<path d="M346.525 40.9648C345.825 42.7918 344.488 44.6958 342.465 44.9478C341.746 45.0679 341.007 44.9392 340.37 44.5829C339.734 44.2265 339.238 43.6639 338.965 42.9878" stroke="black" stroke-width="0.7" stroke-miterlimit="10"/>
<path d="M337.215 53.9499C338.88 52.7446 340.203 51.1257 341.051 49.2529" stroke="black" stroke-width="0.7" stroke-miterlimit="10"/>
<path d="M325.32 39.9082C325.537 41.9172 325.754 43.9332 325.985 45.9492C325.989 46.23 326.082 46.5022 326.251 46.7262C327.007 47.5312 328.75 47.1462 329.562 46.6632" stroke="black" stroke-width="0.7" stroke-miterlimit="10"/>
<path d="M331.461 47.4893L327.961 49.5263C327.961 49.5263 329.312 52.1093 330.663 51.6263C333.19 50.6603 331.461 47.4893 331.461 47.4893Z" fill="white"/>
<path d="M327.094 35.5543C327.292 35.1964 327.559 34.8814 327.88 34.6278C328.201 34.3742 328.569 34.1871 328.963 34.0773C329.621 33.8688 330.318 33.8096 331.002 33.904C331.686 33.9985 332.34 34.2442 332.918 34.6233" stroke="black" stroke-width="0.7" stroke-miterlimit="10"/>
<path d="M318.957 38.473C319.012 38.1313 319.136 37.8042 319.321 37.5118C319.507 37.2194 319.749 36.9677 320.035 36.772C320.474 36.4812 320.989 36.3262 321.516 36.3262C322.042 36.3262 322.557 36.4812 322.996 36.772" stroke="black" stroke-width="0.7" stroke-miterlimit="10"/>
<path d="M331.685 38.557C331.68 38.7652 331.616 38.9678 331.502 39.142C331.388 39.3162 331.228 39.4552 331.039 39.5432C330.85 39.6313 330.641 39.6651 330.434 39.6407C330.227 39.6163 330.031 39.5347 329.868 39.4051C329.705 39.2755 329.582 39.103 329.511 38.907C329.441 38.7111 329.426 38.4993 329.47 38.2956C329.513 38.0919 329.612 37.9043 329.756 37.7539C329.9 37.6035 330.083 37.4962 330.285 37.444C330.617 37.4103 330.95 37.5078 331.211 37.7158C331.473 37.9237 331.643 38.2256 331.685 38.557Z" fill="black"/>
<path d="M323.669 40.9442C323.664 41.1523 323.601 41.3549 323.487 41.5291C323.373 41.7033 323.212 41.8423 323.023 41.9304C322.835 42.0185 322.625 42.0522 322.418 42.0278C322.212 42.0034 322.016 41.9218 321.853 41.7922C321.69 41.6626 321.566 41.4902 321.496 41.2942C321.425 41.0982 321.411 40.8865 321.454 40.6828C321.497 40.4791 321.597 40.2915 321.741 40.141C321.885 39.9906 322.068 39.8833 322.269 39.8312C322.602 39.7937 322.937 39.8899 323.199 40.0985C323.462 40.3071 323.631 40.6112 323.669 40.9442Z" fill="black"/>
<path d="M321.558 29.8984C320.06 30.7034 319.409 32.4604 318.394 33.8254C317.562 34.9265 316.464 35.7978 315.202 36.3574C313.941 36.917 312.558 37.1466 311.184 37.0244" stroke="#635149" stroke-width="0.7" stroke-miterlimit="10"/>
<path d="M334.891 28.7149C336.255 27.4517 337.215 25.8123 337.649 24.0039" stroke="#635149" stroke-width="0.7" stroke-miterlimit="10"/>
<path d="M340.328 126.275H466.419V209.575C466.419 210.74 465.957 211.856 465.134 212.679C464.311 213.502 463.194 213.964 462.03 213.964H344.717C343.553 213.964 342.437 213.502 341.614 212.679C340.791 211.856 340.328 210.74 340.328 209.575V126.275Z" fill="#F1F3ED"/>
<path d="M462.029 114.543C463.193 114.543 464.309 115.005 465.132 115.828C465.955 116.651 466.418 117.768 466.418 118.932V209.61C466.418 210.774 465.955 211.89 465.132 212.713C464.309 213.537 463.193 213.999 462.029 213.999H344.709C343.544 213.999 342.428 213.537 341.605 212.713C340.782 211.89 340.32 210.774 340.32 209.61V118.946C340.32 118.369 340.433 117.799 340.654 117.266C340.874 116.734 341.197 116.25 341.605 115.842C342.013 115.435 342.496 115.111 343.029 114.891C343.561 114.67 344.132 114.557 344.709 114.557H462.029M462.029 113.507H344.709C343.267 113.509 341.884 114.082 340.865 115.102C339.845 116.122 339.271 117.504 339.27 118.946V209.61C339.271 211.052 339.845 212.434 340.865 213.454C341.884 214.473 343.267 215.047 344.709 215.049H462.029C463.471 215.047 464.853 214.473 465.872 213.454C466.892 212.434 467.466 211.052 467.468 209.61V118.946C467.466 117.504 466.892 116.122 465.872 115.102C464.853 114.082 463.471 113.509 462.029 113.507Z" fill="white"/>
<path d="M350.631 120.752C350.631 121.249 350.484 121.735 350.208 122.148C349.932 122.562 349.539 122.884 349.08 123.074C348.621 123.264 348.116 123.314 347.628 123.217C347.141 123.12 346.693 122.881 346.341 122.529C345.99 122.178 345.751 121.73 345.654 121.243C345.557 120.755 345.607 120.25 345.797 119.791C345.987 119.331 346.309 118.939 346.722 118.663C347.136 118.387 347.621 118.239 348.118 118.239C348.785 118.239 349.424 118.504 349.895 118.975C350.367 119.447 350.631 120.086 350.631 120.752Z" stroke="white" stroke-width="1.05" stroke-miterlimit="10"/>
<path d="M360.381 120.752C360.381 121.249 360.234 121.735 359.958 122.148C359.682 122.562 359.289 122.884 358.83 123.074C358.371 123.264 357.866 123.314 357.378 123.217C356.891 123.12 356.443 122.881 356.091 122.529C355.74 122.178 355.501 121.73 355.404 121.243C355.307 120.755 355.357 120.25 355.547 119.791C355.737 119.331 356.059 118.939 356.472 118.663C356.886 118.387 357.371 118.239 357.868 118.239C358.535 118.239 359.174 118.504 359.645 118.975C360.117 119.447 360.381 120.086 360.381 120.752Z" stroke="white" stroke-width="1.05" stroke-miterlimit="10"/>
<path d="M340.328 126.261H466.419" stroke="white" stroke-width="1.05" stroke-miterlimit="10"/>
<path d="M433.918 180.217C431.027 179.713 430.215 187.476 431.601 190.059C427.793 184.62 422.984 176.29 419.176 170.858C414.913 164.754 409.817 157.159 402.124 155.171C395.194 153.386 391.582 159.42 391.477 165.58C391.405 171.498 391.935 177.409 393.059 183.22C394.249 189.52 395.796 196.73 399.233 202.239C395.579 196.38 389.727 194.399 383.196 194.945C380.151 195.197 376.987 196.219 375.069 198.592C371.989 202.393 373.144 209.288 374.453 213.992H383.028H458.439C458.439 213.992 443.284 181.855 433.918 180.217Z" fill="#EF9748"/>
<path d="M346.591 169.277C334.061 169.466 321.643 166.82 309.659 163.166C297.675 159.512 275.835 151.49 275.835 151.49L269.605 170.313C269.605 170.313 301.882 190.76 344.834 194.253" fill="#FFCAA3"/>
<path d="M373.421 174.394C365.07 167.31 346.982 167.814 341.795 168.017C336.608 168.22 327.368 166.687 327.368 166.687L323.98 195.044C323.98 195.044 343.181 198.264 353.87 199.048" fill="#2C221D"/>
<path d="M349.883 181.199C351.192 184.895 350.583 190.299 350.583 194.254C350.583 197.754 351.829 199.7 352.347 203.158C352.963 207.295 355.308 210.249 357.786 214.001H410.986L408.186 184.51L400.983 174.045L385.695 169.964L351.178 179.064" fill="#2C221D"/>
<path d="M366.592 174.045C365.972 175.951 365.769 177.968 365.997 179.96C366.375 182.228 367.817 183.663 369.875 184.51" stroke="#6D574E" stroke-width="0.7" stroke-miterlimit="10"/>
<path d="M372.492 185.133C381.921 186.82 391.84 180.086 392.792 171.504" stroke="#6D574E" stroke-width="0.7" stroke-miterlimit="10"/>
<path d="M443.407 210.599C442.536 208.41 441.29 206.389 439.725 204.628C435.662 199.61 431.127 194.994 426.18 190.845L408.379 207.043L419.397 217.725L406.531 241.042L423.59 245.942C423.59 245.942 436.652 231.515 441.65 223.479C444.072 219.489 444.933 215.03 443.407 210.599Z" fill="#FFCAA3"/>
<path d="M409.908 235.806C409.908 235.806 402.446 246.544 401.683 248.483C401.043 250.356 400.604 252.292 400.374 254.258C399.674 259.375 402.383 264.632 404.448 267.117C404.686 267.394 405.013 267.58 405.372 267.642C406.135 267.782 406.443 267.383 406.429 266.48L407.682 268.188C407.835 268.431 408.041 268.637 408.284 268.79C408.542 268.865 408.818 268.855 409.07 268.762C409.322 268.669 409.537 268.497 409.684 268.272C410.018 267.767 410.256 267.204 410.384 266.613C410.825 267.257 411.518 267.929 412.183 267.537C412.558 267.215 412.851 266.81 413.039 266.354C413.228 265.898 413.306 265.404 413.268 264.912C413.485 265.612 414.437 265.647 414.955 265.122C415.435 264.516 415.736 263.789 415.823 263.022C416.101 261.079 416.674 259.19 417.524 257.422C418.206 256.351 418.951 255.322 419.757 254.342C422.186 250.996 423.39 246.726 424.174 242.526" fill="#FFCAA3"/>
<path d="M414.801 252.36L413.793 254.593C413.52 255.195 413.247 255.797 413.03 256.427C412.05 259.257 412.208 262.357 413.471 265.072" stroke="black" stroke-width="0.7" stroke-miterlimit="10"/>
<path d="M409.184 252.08C408.484 255.461 408.225 259.528 408.708 262.069C409.06 263.716 409.71 265.284 410.626 266.696" stroke="black" stroke-width="0.7" stroke-miterlimit="10"/>
<path d="M404.267 250.807C404.267 250.807 403.833 253.306 403.728 254.713C403.399 259.193 403.994 263.526 406.437 266.844" stroke="black" stroke-width="0.7" stroke-miterlimit="10"/>
<path d="M274.317 170.636L270.285 170.244C269.08 170.167 267.885 169.966 266.722 169.642C265.961 169.377 265.219 169.059 264.503 168.69C261.521 167.234 259.995 166.8 257.139 165.12C255.508 164.138 253.818 163.259 252.078 162.488C250.37 161.753 248.578 161.354 247.01 160.353C246.867 160.275 246.748 160.158 246.667 160.017C246.633 159.895 246.633 159.767 246.667 159.646C247.031 157.07 252.267 157.658 254.367 158.246C254.966 158.477 255.611 158.564 256.25 158.498C256.237 157.673 255.994 156.868 255.55 156.174C254.374 154.074 252.652 152.38 251.098 150.574C249.656 148.873 248.2 147.179 246.898 145.387C245.659 143.714 244.378 140.067 245.351 139.619C246.324 139.171 245.806 140.06 246.121 140.102C245.491 139.717 245.729 138.17 246.184 137.561C246.639 136.952 247.885 137.876 248.284 138.464C247.836 137.897 247.99 136.616 248.452 136.364C249.152 136.028 249.922 136.483 250.552 136.861C251.138 137.299 251.8 137.627 252.505 137.827C252.321 137.364 252.212 136.875 252.183 136.378C252.533 135.944 253.219 136.168 253.702 136.427C263.439 141.733 271.748 149.769 282.101 154.501" fill="#FFCAA3"/>
<path d="M254.145 154.186C255.293 155.944 256.107 157.9 256.546 159.954" stroke="black" stroke-width="0.7" stroke-miterlimit="10"/>
<path d="M246.059 139.521C247.347 141.124 249.076 142.237 250.581 143.616C252.982 145.814 255.264 148.124 257.581 150.406" stroke="black" stroke-width="0.7" stroke-miterlimit="10"/>
<path d="M248.215 138.268C248.956 138.969 249.744 139.619 250.574 140.214C251.456 140.851 252.387 141.418 253.304 142.013C255.918 143.716 258.41 145.601 260.759 147.655" stroke="black" stroke-width="0.7" stroke-miterlimit="10"/>
<path d="M252.777 138.009C253.643 138.75 254.61 139.365 255.647 139.836C258.797 141.512 261.734 143.559 264.397 145.933" stroke="black" stroke-width="0.7" stroke-miterlimit="10"/>
<path d="M274.709 171.245C274.709 171.245 269.2 170.503 266.953 169.908" stroke="black" stroke-width="0.7" stroke-miterlimit="10"/>
<path d="M396.496 172.876C400.283 173.24 404.077 173.576 407.696 174.976C412.253 176.698 416.215 179.932 419.946 183.236C423.845 186.694 427.821 191.391 431.615 194.996L412.183 211.985L398.393 198.545" fill="#2C221D"/>
<path d="M419.371 217.71C421.058 215.571 423.002 213.648 425.16 211.984" stroke="black" stroke-width="0.7" stroke-miterlimit="10"/>
<path d="M406.5 206.469L426.772 190.061" stroke="#6D574E" stroke-width="0.7" stroke-miterlimit="10"/>
<path d="M331.402 196.227L334.342 167.618" stroke="#6D574E" stroke-width="0.7" stroke-miterlimit="10"/>
<path d="M349.883 190.845C349.883 190.845 351.227 196.949 351.591 199.567" stroke="#6D574E" stroke-width="0.7" stroke-miterlimit="10"/>
<path d="M397.707 198.545C401.907 201.793 412.155 212.006 412.155 212.006" stroke="#6D574E" stroke-width="0.7" stroke-miterlimit="10"/>
<path d="M376.075 152.574L385.175 156.249L384.643 162.29L389.207 171.117C389.207 171.117 386.981 179.44 376.978 181.512C368.536 183.262 368.725 177.809 368.725 177.809L364.707 166.203" fill="#E27769"/>
<path d="M356.944 157.244C358.281 152.715 359.002 149.936 360.717 146.646C362.159 143.846 364.693 139.835 367.598 138.526C371.336 136.846 375.613 138.911 379.386 140.276C385.581 142.544 386.981 149.831 386.281 155.655C385.728 160.128 383.117 162.333 379.939 165.651C375.781 169.991 365.554 173.687 360.269 170.985C356.321 168.962 355.523 162.025 356.944 157.244Z" fill="#FFCAA3"/>
<path d="M376.774 158.022C377.404 156.146 380.407 155.467 381.891 156.587C385.461 159.289 381.856 166.065 377.901 165.589C376.788 165.449 375.402 164.56 375.402 163.251" fill="#FFCAA3"/>
<path d="M381.184 159.891L376.746 161.935" stroke="black" stroke-width="0.7" stroke-miterlimit="10"/>
<path d="M379.282 156.25C378.266 156.505 377.353 157.064 376.664 157.853" stroke="black" stroke-width="0.7" stroke-miterlimit="10"/>
<path d="M382.334 163.244C381.34 164.644 379.772 165.918 378.008 165.673C377.376 165.607 376.785 165.329 376.332 164.884C375.88 164.439 375.592 163.853 375.516 163.223" stroke="black" stroke-width="0.7" stroke-miterlimit="10"/>
<path d="M366.723 172.147C369.733 171.848 372.621 170.801 375.123 169.102" stroke="black" stroke-width="0.7" stroke-miterlimit="10"/>
<path d="M362.353 154.948C361.777 156.14 360.962 157.2 359.959 158.063C359.704 158.235 359.469 158.434 359.259 158.658C359.11 158.83 359.003 159.033 358.944 159.253C358.886 159.472 358.879 159.702 358.923 159.925C358.969 160.148 359.065 160.357 359.203 160.538C359.341 160.718 359.518 160.866 359.721 160.968" stroke="black" stroke-width="0.7" stroke-miterlimit="10"/>
<path d="M360.484 163.649C360.816 163.937 361.224 164.122 361.659 164.183C362.093 164.244 362.536 164.178 362.934 163.992C363.928 163.46 363.949 162.186 363.984 161.192" stroke="black" stroke-width="0.7" stroke-miterlimit="10"/>
<path d="M367.207 152.491C367.935 152.326 368.691 152.326 369.419 152.491C370.154 152.648 370.814 153.047 371.295 153.625C371.814 154.416 372.134 155.322 372.226 156.264" stroke="black" stroke-width="0.7" stroke-miterlimit="10"/>
<path d="M359.113 149.726C359.467 149.487 359.877 149.347 360.303 149.319C360.728 149.291 361.153 149.375 361.535 149.565C361.915 149.76 362.251 150.032 362.52 150.363C362.79 150.695 362.989 151.078 363.103 151.49" stroke="black" stroke-width="0.7" stroke-miterlimit="10"/>
<path d="M368.43 156.67C368.143 157.265 367.569 157.58 367.142 157.37C366.921 157.208 366.772 156.967 366.724 156.697C366.676 156.428 366.732 156.15 366.883 155.921C367.163 155.326 367.744 155.011 368.171 155.221C368.392 155.383 368.543 155.624 368.591 155.894C368.639 156.164 368.582 156.442 368.43 156.67Z" fill="black"/>
<path d="M360.569 154.086C360.282 154.681 359.708 154.996 359.274 154.786C359.054 154.625 358.905 154.385 358.857 154.117C358.808 153.849 358.865 153.572 359.015 153.344C359.302 152.749 359.883 152.434 360.31 152.644C360.527 152.808 360.674 153.047 360.722 153.314C360.77 153.582 360.715 153.857 360.569 154.086Z" fill="black"/>
<path d="M442.121 235.265C446.411 230.899 449.397 225.423 450.745 219.452" stroke="black" stroke-width="0.7" stroke-miterlimit="10"/>
<path d="M451.895 232.844C453.188 230.292 454.006 227.526 454.31 224.682" stroke="black" stroke-width="0.7" stroke-miterlimit="10"/>
<path d="M368.396 96.8887C368.396 96.8887 361.109 100.228 356.216 102.447C353.451 103.7 348.81 107.13 347.228 109.741C345.212 113.066 344.687 117.175 344.918 120.563C345.235 123.149 346.153 125.626 347.599 127.794C348.593 129.411 349.65 131.091 350.567 130.874C351.484 130.657 351.162 128.396 351.162 128.396C351.52 129.258 351.971 130.08 352.506 130.846C352.842 131.07 353.206 131.273 353.584 131.091C354.031 130.887 354.393 130.533 354.606 130.09C354.769 129.68 354.852 129.243 354.851 128.802C354.882 128.193 354.882 127.583 354.851 126.975C355.054 127.43 355.25 128.844 355.635 128.767C356.161 128.634 356.635 128.349 357 127.948C357.631 127.086 358.105 126.119 358.4 125.092C358.389 125.329 358.422 125.566 358.498 125.792C358.541 125.905 358.612 126.005 358.706 126.082C358.799 126.16 358.911 126.212 359.03 126.233C359.682 125.981 360.273 125.595 360.766 125.099C361.55 124.028 361.844 122.607 362.411 121.41C362.845 120.49 363.388 119.625 364.028 118.834C364.699 117.958 365.527 117.215 366.471 116.643C368.319 115.67 369.46 115.411 371.371 114.543C373.012 113.855 374.471 112.796 375.634 111.449" fill="#FFCAA3"/>
<path d="M358.191 125.512C358.338 123.916 358.527 122.327 358.779 120.752C358.91 119.692 359.171 118.653 359.556 117.658C360.349 116.095 361.424 114.692 362.727 113.521" stroke="black" stroke-width="0.7" stroke-miterlimit="10"/>
<path d="M355.005 127.332C354.501 124.647 354.339 121.909 354.522 119.184C354.517 118.429 354.59 117.676 354.739 116.937C355.133 115.692 355.754 114.531 356.573 113.514" stroke="black" stroke-width="0.7" stroke-miterlimit="10"/>
<path d="M351.241 128.921C350.286 126.311 349.631 123.601 349.288 120.843C349.242 120.312 349.228 119.779 349.246 119.247C349.349 117.253 349.93 115.313 350.94 113.591" stroke="black" stroke-width="0.7" stroke-miterlimit="10"/>
<path d="M374.589 57.3807L387.413 81.5727L358.797 101.173L377.634 116.006C377.634 116.006 409.736 105.555 418.486 100.368C425.346 96.2938 428.286 85.7237 415.07 68.4827C401.854 51.2417 392.712 41.0077 389.996 38.1377C384.179 31.9427 377.214 29.3667 370.739 32.6427" fill="#4C4139"/>
<path d="M374.597 57.3809L387.414 81.5729L358.805 101.166" stroke="black" stroke-width="0.7" stroke-miterlimit="10"/>
<path d="M375.332 109.328C375.333 109.518 375.278 109.704 375.174 109.863C375.069 110.021 374.92 110.145 374.745 110.219C374.57 110.293 374.377 110.313 374.19 110.276C374.004 110.24 373.832 110.149 373.697 110.016C373.563 109.882 373.471 109.711 373.433 109.525C373.395 109.338 373.414 109.145 373.486 108.97C373.559 108.794 373.682 108.644 373.84 108.538C373.997 108.432 374.183 108.376 374.373 108.376C374.626 108.376 374.869 108.476 375.049 108.654C375.228 108.833 375.33 109.075 375.332 109.328Z" stroke="black" stroke-width="0.7" stroke-miterlimit="10"/>
<path d="M380.283 107.305C380.813 107.305 381.242 106.875 381.242 106.346C381.242 105.816 380.813 105.387 380.283 105.387C379.754 105.387 379.324 105.816 379.324 106.346C379.324 106.875 379.754 107.305 380.283 107.305Z" stroke="black" stroke-width="0.7" stroke-miterlimit="10"/>
<path d="M368.898 109.118C369.003 109.202 381.232 103.042 381.232 103.042" stroke="black" stroke-width="0.7" stroke-miterlimit="10"/>
<path d="M369.57 93.7874C369.689 93.7034 391.557 111.287 391.557 111.287" stroke="black" stroke-width="0.7" stroke-miterlimit="10"/>
<path d="M386.715 81.8106C389.403 80.7675 392.098 79.6335 394.968 79.2065C398.044 78.8461 401.149 78.7968 404.236 79.0595" stroke="black" stroke-width="0.7" stroke-miterlimit="10"/>
<path d="M377.637 115.991L414.695 102.523" stroke="black" stroke-width="0.7" stroke-miterlimit="10"/>
<path d="M384.114 26.5867C376.708 19.6287 369.148 12.7057 360.391 7.54668C344.179 -2.00133 321.555 -0.524326 310.376 6.42668C301.787 11.7607 297.265 18.3967 291.756 26.6217C284.854 36.9187 277.616 47.9927 266.241 52.9207C260.704 55.3217 254.607 56.0497 248.678 57.2047C242.749 58.3597 236.687 60.1097 232.144 64.0927C227.601 68.0757 225.018 74.8378 227.468 80.3538C229.4 84.6938 234.146 87.4238 238.885 87.5568C243.624 87.6898 248.258 85.4568 251.667 82.1948C260.382 73.7948 264.442 51.6677 248.342 45.2977" stroke="#ED725A" stroke-width="1.05" stroke-miterlimit="10"/>
<path d="M32.4531 176.541C33.6302 181.724 36.0738 186.534 39.5651 190.541C44.1221 195.735 53.4181 199.095 57.4081 191.542C59.2701 188.042 60.2081 182.351 55.7701 179.838C55.456 179.634 55.094 179.516 54.7201 179.495C54.3318 179.532 53.9637 179.686 53.6639 179.936C53.3642 180.185 53.1468 180.52 53.0401 180.895C51.8571 184.08 53.7401 187.524 56.3371 190.079C57.5328 191.357 59.0055 192.343 60.6421 192.963C61.503 193.287 62.4227 193.426 63.3409 193.369C64.259 193.312 65.1547 193.062 65.9691 192.634C68.3071 191.234 68.9231 188.07 68.7691 185.823" stroke="#8F96DB" stroke-width="1.05" stroke-miterlimit="10"/>
<path d="M22.668 48.644C26.784 43.45 32.335 38.753 38.572 36.352C42.1863 34.9998 46.0951 34.6326 49.898 35.288C51.669 35.638 53.727 36.198 54.798 37.787C55.869 39.376 54.602 42.582 56.898 43.534C57.499 43.7321 58.1425 43.7636 58.76 43.625C60.713 43.331 62.617 42.743 64.577 42.456C66.5322 42.0692 68.5591 42.2965 70.38 43.107C72.144 44.003 73.481 45.907 73.222 47.895C73.117 48.665 72.781 49.421 72.928 50.184C73.166 51.458 74.608 52.123 75.896 52.284C78.57 52.529 81.111 52.445 83.386 54.153C85.052 55.413 86.011 57.653 85.157 59.459" stroke="#FFDD99" stroke-width="1.05" stroke-miterlimit="10"/>
<path d="M197.285 43.702C198.328 41.392 199.49 39.075 201.303 37.304C203.116 35.533 205.706 34.378 208.191 34.861C209.479 35.113 210.69 35.778 211.999 35.75C213.805 35.75 215.345 34.35 216.157 32.719C216.969 31.088 217.2 29.282 217.557 27.511C218.082 24.711 218.957 21.792 220.868 19.664C222.779 17.536 226.076 16.388 228.666 17.655" stroke="#FFDD99" stroke-width="1.05" stroke-miterlimit="10"/>
<path d="M75.3145 279.406C76.0337 275.113 73.1363 271.049 68.8431 270.33C64.5498 269.611 60.4863 272.508 59.7671 276.802C59.0479 281.095 61.9452 285.158 66.2385 285.877C70.5318 286.597 74.5953 283.699 75.3145 279.406Z" stroke="#909DF4" stroke-width="1.05" stroke-miterlimit="10"/>
<path d="M201.664 15.8972C205.194 15.8972 208.055 13.0359 208.055 9.50624C208.055 5.97658 205.194 3.11523 201.664 3.11523C198.135 3.11523 195.273 5.97658 195.273 9.50624C195.273 13.0359 198.135 15.8972 201.664 15.8972Z" stroke="#8F96DB" stroke-width="1.05" stroke-miterlimit="10"/>
<path d="M429.102 254.71L433.337 282.619L449.99 270.355L429.102 254.71Z" fill="#FFDD99"/>
<path d="M9.89407 224.092L21.1571 211.317L1.91406 212.01L9.89407 224.092Z" stroke="#8F96DB" stroke-width="1.05" stroke-miterlimit="10"/>
<path d="M27.8999 255.725C30.4206 255.725 32.4639 253.681 32.4639 251.161C32.4639 248.64 30.4206 246.597 27.8999 246.597C25.3793 246.597 23.3359 248.64 23.3359 251.161C23.3359 253.681 25.3793 255.725 27.8999 255.725Z" fill="#FFDD99"/>
<path d="M37.6417 60.8096L26.6797 84.7356L60.1817 79.8776L37.6417 60.8096Z" fill="#ED725A"/>
<path d="M16.1391 120.421C16.139 120.977 15.9739 121.519 15.6646 121.98C15.3554 122.442 14.916 122.801 14.4023 123.011C13.8887 123.222 13.3239 123.276 12.7798 123.165C12.2357 123.054 11.7369 122.784 11.3468 122.389C10.9566 121.993 10.6927 121.491 10.5887 120.946C10.4846 120.4 10.5451 119.836 10.7624 119.325C10.9797 118.814 11.344 118.38 11.809 118.076C12.2741 117.773 12.8188 117.614 13.3741 117.621C14.1106 117.631 14.8138 117.93 15.3314 118.454C15.8489 118.978 16.1391 119.685 16.1391 120.421Z" fill="#909DF4"/>
<path d="M391.799 11.3059C391.799 11.8597 391.635 12.401 391.327 12.8615C391.02 13.3219 390.582 13.6808 390.071 13.8927C389.559 14.1047 388.996 14.1601 388.453 14.0521C387.91 13.944 387.411 13.6774 387.019 13.2858C386.628 12.8942 386.361 12.3953 386.253 11.8521C386.145 11.309 386.2 10.746 386.412 10.2343C386.624 9.72271 386.983 9.28541 387.444 8.97775C387.904 8.67008 388.445 8.50586 388.999 8.50586C389.742 8.50586 390.454 8.80086 390.979 9.32596C391.504 9.85106 391.799 10.5633 391.799 11.3059Z" fill="#ED725A"/>
<path d="M442.695 252.981C443.763 252.551 444.917 252.379 446.063 252.477C447.21 252.576 448.318 252.943 449.296 253.548C450.948 254.661 451.809 256.74 453.797 257.391C456.709 258.343 459.285 255.627 462.099 255.438C464.528 255.277 466.488 256.929 467.44 259.05C468.151 260.916 468.528 262.892 468.553 264.888" stroke="#8F96DB" stroke-width="1.05" stroke-miterlimit="10"/>
<path d="M421.285 63.1694C421.815 61.9167 422.704 60.8492 423.841 60.1017C424.977 59.3542 426.309 58.9601 427.669 58.9694C429.069 58.9694 430.469 59.4664 431.785 59.1164C435.943 58.0384 435.593 50.8074 439.702 49.5544C442.544 48.6864 445.638 51.4444 448.424 50.3944C450.818 49.4984 451.406 46.4814 452.169 44.0384C453.245 40.7382 455.212 37.7997 457.853 35.5477C460.494 33.2956 463.707 31.8177 467.135 31.2773" stroke="#8F96DB" stroke-width="1.05" stroke-miterlimit="10"/>
<path d="M389.611 208.427C390.775 208.427 391.891 208.889 392.714 209.712C393.537 210.536 394 211.652 394 212.816V290.516C394 291.68 393.537 292.796 392.714 293.62C391.891 294.443 390.775 294.905 389.611 294.905H263.709C263.132 294.906 262.561 294.793 262.028 294.573C261.495 294.353 261.011 294.029 260.603 293.622C260.195 293.214 259.872 292.73 259.652 292.197C259.432 291.664 259.319 291.093 259.32 290.516V212.816C259.32 211.652 259.782 210.536 260.605 209.712C261.428 208.889 262.545 208.427 263.709 208.427H389.611ZM389.611 207.377H263.709C262.267 207.379 260.884 207.952 259.865 208.972C258.845 209.992 258.271 211.374 258.27 212.816V290.516C258.27 291.959 258.843 293.342 259.863 294.362C260.883 295.382 262.266 295.955 263.709 295.955H389.611C391.053 295.953 392.435 295.38 393.454 294.36C394.474 293.34 395.048 291.958 395.05 290.516V212.816C395.048 211.374 394.474 209.992 393.454 208.972C392.435 207.952 391.053 207.379 389.611 207.377Z" fill="white"/>
<path d="M261.961 219.274H396.641V289.688C396.641 290.852 396.179 291.968 395.355 292.791C394.532 293.614 393.416 294.076 392.252 294.076H266.35C265.186 294.076 264.07 293.614 263.246 292.791C262.423 291.968 261.961 290.852 261.961 289.688V219.274Z" fill="#C5B3DD"/>
<path d="M269.624 214.643C269.624 215.14 269.476 215.626 269.2 216.039C268.924 216.452 268.532 216.774 268.072 216.965C267.613 217.155 267.108 217.205 266.62 217.108C266.133 217.011 265.685 216.771 265.334 216.42C264.982 216.068 264.743 215.621 264.646 215.133C264.549 214.646 264.599 214.14 264.789 213.681C264.979 213.222 265.301 212.83 265.715 212.553C266.128 212.277 266.614 212.13 267.111 212.13C267.777 212.13 268.416 212.395 268.888 212.866C269.359 213.337 269.624 213.976 269.624 214.643Z" stroke="white" stroke-width="1.05" stroke-miterlimit="10"/>
<path d="M279.362 214.643C279.362 215.14 279.214 215.626 278.938 216.04C278.662 216.453 278.269 216.775 277.809 216.965C277.349 217.155 276.844 217.205 276.356 217.107C275.868 217.01 275.421 216.77 275.07 216.417C274.718 216.065 274.48 215.617 274.383 215.129C274.287 214.641 274.338 214.135 274.529 213.676C274.721 213.217 275.044 212.825 275.458 212.55C275.872 212.275 276.359 212.129 276.856 212.13C277.186 212.13 277.512 212.195 277.817 212.321C278.121 212.448 278.398 212.633 278.63 212.866C278.863 213.1 279.048 213.377 279.173 213.682C279.299 213.987 279.363 214.313 279.362 214.643Z" stroke="white" stroke-width="1.05" stroke-miterlimit="10"/>
<path d="M259.32 220.131H394" stroke="white" stroke-width="1.05" stroke-miterlimit="10"/>
<path d="M375.083 278.125C368.384 270.698 360.593 267.03 356.638 267.926C350.814 269.242 351.871 284.103 352.039 290.074C349.215 286.811 345.751 284.161 341.861 282.29C338.949 280.89 335.624 279.924 332.481 280.694C329.338 281.464 326.559 284.418 326.93 287.631C319.544 276.697 309.531 267.792 297.81 261.731C290.432 257.93 270.37 250.013 266.933 258.231C263.167 267.24 284.538 294.974 284.538 294.974H388.138C388.138 294.974 381.152 284.824 375.083 278.125Z" fill="#A29DCE"/>
<path d="M245.683 198.871C241.882 194.888 238.228 187.188 237.206 183.086C236.303 179.474 235.498 175.778 233.79 172.439C233.328 171.536 231.354 169.457 232.075 168.379C233.517 166.202 237.024 169.079 237.934 170.367C238.263 170.829 239.467 172.782 240.069 172.901C240.671 173.02 240.93 170.675 241.007 169.667C241.311 165.683 241.311 161.682 241.007 157.697C240.671 153.679 241.245 150.151 242.505 149.997C243.765 149.843 243.716 150.571 243.947 150.823C244.15 149.549 245.312 148.023 246.047 148.464C246.259 148.62 246.432 148.822 246.553 149.055C246.675 149.288 246.741 149.546 246.747 149.808C246.837 150.32 246.961 150.825 247.118 151.32C247.118 151.32 247.818 148.604 249.169 150.144C249.834 150.914 250.856 155.044 251.507 156.339C251.338 155.564 251.338 154.762 251.507 153.987C251.661 153.434 251.969 152.986 252.564 153.287C252.714 153.383 252.842 153.509 252.941 153.658C253.04 153.806 253.107 153.973 253.138 154.148C253.803 155.989 255.434 158.957 256.029 160.826L257.891 166.678C259.053 170.339 260.187 174.196 261.02 178.018C261.797 181.553 264.632 190.268 264.632 190.268" fill="#FFCAA3"/>
<path d="M243.883 151.006C244.219 153.106 244.989 155.773 245.409 158.153C246.011 161.555 246.284 164.712 246.809 167.715" stroke="black" stroke-width="0.7" stroke-miterlimit="10"/>
<path d="M247.273 151.349C247.679 153.141 248.379 155.633 248.841 157.649C249.625 161.058 250.199 164.124 250.878 167.12" stroke="black" stroke-width="0.7" stroke-miterlimit="10"/>
<path d="M251.473 156.248C252.467 159.51 253.909 163.248 255.05 167.385" stroke="black" stroke-width="0.7" stroke-miterlimit="10"/>
<path d="M240.455 172.691C240.196 174.413 240.07 176.247 238.922 177.752" stroke="black" stroke-width="0.7" stroke-miterlimit="10"/>
<path d="M374.385 294.933C373.041 291.335 371.585 287.555 369.576 284.258C367.593 280.862 364.835 277.983 361.526 275.858C359.985 274.96 358.386 274.167 356.738 273.485L343.55 267.661L321.976 259.261L317.979 255.544C315.403 253.15 312.836 250.739 310.279 248.313L309.985 248.033C290.455 229.392 275.93 208.567 263.246 184.27L240.461 194.259C240.461 194.259 250.317 227.859 259.683 242.104C272.052 260.934 286.36 278.063 292.821 283.488C293.974 287.366 295.299 291.183 296.797 294.94L374.385 294.933Z" fill="#FCDDD2"/>
<path d="M244.121 205.802L268.565 194.049" stroke="black" stroke-width="0.7" stroke-miterlimit="10"/>
<path d="M245.348 192.109L253.587 209.987" stroke="black" stroke-width="0.7" stroke-miterlimit="10"/>
<path d="M253.089 195.868C253.089 196.188 252.995 196.5 252.817 196.766C252.639 197.032 252.387 197.239 252.091 197.362C251.796 197.484 251.471 197.516 251.157 197.454C250.843 197.392 250.555 197.238 250.329 197.011C250.103 196.785 249.949 196.497 249.887 196.183C249.824 195.87 249.856 195.545 249.979 195.249C250.101 194.954 250.308 194.701 250.574 194.523C250.84 194.346 251.153 194.251 251.472 194.251C251.901 194.253 252.311 194.424 252.614 194.727C252.917 195.029 253.088 195.44 253.089 195.868Z" stroke="#D8A798" stroke-width="0.7" stroke-miterlimit="10"/>
<path d="M341.168 294.443L344.535 290.054C345.721 288.453 346.99 286.916 348.336 285.448C352.318 281.149 357.685 278.386 363.498 277.643" stroke="#D8A798" stroke-width="0.7" stroke-miterlimit="10"/>
<path d="M292.141 281.381C292.188 275.502 294.041 269.78 297.447 264.987C301.682 258.988 307.905 254.683 315.43 254.487" stroke="#D8A798" stroke-width="0.7" stroke-miterlimit="10"/>
<path d="M292.714 283.242C291.636 280.029 291.021 276.431 289.312 273.484" stroke="black" stroke-width="0.7" stroke-miterlimit="10"/>
<path d="M315.099 256.867L313.699 274.787C313.699 274.787 319.719 280.926 328.007 276.929C336.295 272.932 342.336 265.33 342.336 265.33L339.627 254.221" fill="#FFCAA3"/>
<path d="M348.027 234.53C347.196 231.897 345.626 229.557 343.505 227.789C338.423 223.631 332.837 223.743 327.405 226.949C322.666 229.749 316.156 234.131 312.537 238.338C308.806 242.685 306.307 248.082 310.122 253.164C316.254 261.333 333.46 258.561 341.664 251.862C345.01 249.132 348.16 244.701 348.664 240.34C348.86 238.38 348.643 236.401 348.027 234.53Z" fill="#FFCAA3"/>
<path d="M326.329 229.23C323.592 230.63 320.603 230.994 317.607 231.33C316.165 231.505 314.261 231.988 314.52 233.878C314.688 235.096 315.752 236.146 316.62 236.888" fill="#FFCAA3"/>
<path d="M314.401 247.844L315.15 246.164C315.626 245.079 314.072 244.351 313.33 243.98C312.798 243.714 312.511 243.469 311.972 243.826C311.839 243.917 311.055 244.666 310.887 244.526L309.445 242.846C308.273 244.988 307.695 247.405 307.772 249.846C307.895 251.832 308.719 253.709 310.096 255.145C310.735 255.801 311.438 256.389 312.196 256.902C317.845 260.304 324.887 260.045 331.033 257.658C332.963 256.986 334.715 255.885 336.157 254.438C317.369 254.186 314.401 247.844 314.401 247.844Z" fill="#1E1611"/>
<path d="M336.829 246.584L336.577 246.535C335.324 246.332 334.085 246.535 332.846 246.108C331.834 245.801 330.96 245.15 330.375 244.267C329.724 243.203 330.613 242.587 331.474 242.118C332.768 241.443 333.965 240.595 335.03 239.598C335.905 238.805 336.543 237.784 336.872 236.649C337.2 235.514 337.208 234.311 336.892 233.172C336.087 230.631 333.588 229.133 331.642 227.523C329.696 225.913 327.963 226.275 329.963 224.775C331.963 221.775 337.387 222.397 339.963 222.775C341.363 222.978 345.105 225.992 346.463 225.775C347.163 225.663 346.298 225.929 346.963 225.775C348.026 225.509 346.926 225.923 347.963 226.275C349.001 226.626 348.194 225.418 348.876 226.275C349.793 227.549 348.556 226.575 349.963 227.275C350.677 227.525 349.711 226.69 350.463 226.775C351.21 226.967 350.879 226.771 351.463 227.275C352.047 227.779 351.663 226.564 351.963 227.275C352.554 228.714 355.055 229.636 354.49 231.086C353.503 233.669 352.033 234.964 353.244 237.813C356.044 244.435 357.227 252.562 350.528 257.322C348.764 258.568 346.552 259.219 345.089 260.822C344.172 261.809 343.423 263.223 342.086 263.363C341.633 263.369 341.184 263.271 340.774 263.077C340.364 262.883 340.004 262.598 339.72 262.243C339.19 261.63 338.721 260.966 338.32 260.262C337.656 259.349 337.204 258.299 336.997 257.189C336.822 255.593 337.655 254.081 338.397 252.667C339.139 251.253 340.539 248.558 338.845 247.452C338.23 247.046 337.547 246.752 336.829 246.584Z" fill="#1E1611"/>
<path d="M332.693 232.143C332.273 230.862 331.503 229.588 330.313 230.169C330.17 230.251 330.047 230.366 329.957 230.505C329.867 230.644 329.812 230.802 329.795 230.967C329.769 231.296 329.795 231.627 329.872 231.947C330.057 233.486 330.532 234.975 331.272 236.336C331.415 236.624 331.636 236.867 331.909 237.036C333.785 237.911 332.931 232.843 332.693 232.143Z" fill="#1E1611"/>
<path d="M320.925 240.788L315.661 239.598C315.661 239.598 315.143 244.113 317.383 244.561C319.623 245.009 320.925 240.788 320.925 240.788Z" fill="white"/>
<path d="M315.344 235.488C315.782 236.059 316.368 236.499 317.038 236.762" stroke="black" stroke-width="0.7" stroke-miterlimit="10"/>
<path d="M321.184 230.855C323.154 230.56 325.053 229.902 326.784 228.916" stroke="black" stroke-width="0.7" stroke-miterlimit="10"/>
<path d="M335.605 246.766C337.544 245.303 341.072 246.703 341.8 248.866C343.543 254.102 335.15 258.47 331.468 255.229C330.425 254.312 329.641 252.429 330.558 251.106" fill="#FFCAA3"/>
<path d="M338.776 251.736L332.84 250.728" stroke="black" stroke-width="0.7" stroke-miterlimit="10"/>
<path d="M339.386 246.717C338.179 246.264 336.862 246.194 335.613 246.514" stroke="black" stroke-width="0.7" stroke-miterlimit="10"/>
<path d="M330.691 251.176C330.389 251.734 330.253 252.367 330.297 253.001C330.342 253.634 330.566 254.242 330.943 254.753C332.259 256.671 335.43 256.678 337.348 255.859" stroke="black" stroke-width="0.7" stroke-miterlimit="10"/>
<path d="M327.176 236.462C326.427 237.008 325.503 237.008 325.111 236.462C324.719 235.916 325.013 235.062 325.769 234.509C326.525 233.956 327.442 233.963 327.827 234.509C328.212 235.055 327.925 235.916 327.176 236.462Z" fill="black"/>
<path d="M345.235 264.749C326.335 266.989 314.75 275.648 314.75 275.648L318.04 290.67C334.952 274.57 351.409 270.965 351.57 270.79L345.235 264.749Z" fill="#FCDDD2"/>
<path d="M314.184 266.051L307.079 270.643C307.079 270.643 305.854 283.418 308.192 290.243L314.751 275.697L314.184 266.051Z" fill="#FCDDD2"/>
<path d="M314.75 275.648L318.04 290.67C334.952 274.57 351.409 270.965 351.57 270.79" stroke="black" stroke-width="0.7" stroke-miterlimit="10"/>
<path d="M314.184 266.051L307.079 270.643C307.079 270.643 305.854 283.418 308.192 290.243L314.751 275.697" stroke="black" stroke-width="0.7" stroke-miterlimit="10"/>
<path d="M356.738 249.195C357.787 246.402 358.412 243.467 358.593 240.489C358.764 237.496 358.044 234.519 356.524 231.935C355.606 230.569 354.52 229.325 353.291 228.231C352.292 227.266 351.211 226.39 350.06 225.611C345.703 222.781 340.203 222.394 335.015 222.628" fill="#FCDDD2"/>
<path d="M332.747 222.177C335.384 221.188 338.3 221.243 340.897 222.333C341.388 222.554 341.863 222.811 342.318 223.1C345.485 225.137 347.913 228.097 350.194 231.05C353.235 235.042 356.194 239.224 357.707 244.009C358.366 245.708 358.486 247.569 358.051 249.339C357.712 250.287 357.195 251.161 356.528 251.915C355.198 253.408 353.645 254.684 351.923 255.699C346.31 244.142 338.953 233.879 329.074 225.669C329.811 224.081 331.124 222.833 332.747 222.177Z" fill="#FCDDD2"/>
<path d="M357.854 244.574C355.079 235.767 349.52 228.101 342.012 222.727" stroke="black" stroke-width="0.7" stroke-miterlimit="10"/>
<path d="M353.559 244.279C351.835 245.83 349.876 247.099 347.756 248.038" stroke="black" stroke-width="0.7" stroke-miterlimit="10"/>
<path d="M347.895 233.213C345.857 235.151 343.608 236.855 341.191 238.292" stroke="black" stroke-width="0.7" stroke-miterlimit="10"/>
<path d="M340.621 224.764C337.978 225.992 335.519 227.582 333.315 229.489" stroke="black" stroke-width="0.7" stroke-miterlimit="10"/>
<path d="M337.887 222.433C335.458 223.859 333.215 225.579 331.208 227.555" stroke="black" stroke-width="0.7" stroke-miterlimit="10"/>
<path d="M357.414 247.083C355.739 249.75 353.16 251.724 350.148 252.645" stroke="black" stroke-width="0.7" stroke-miterlimit="10"/>
<path d="M244.023 225.423C245.94 232.227 248.766 238.742 252.423 244.792" stroke="black" stroke-width="0.7" stroke-miterlimit="10"/>
<path d="M244.648 237.092C245.847 241.461 247.284 245.76 248.953 249.972" stroke="black" stroke-width="0.7" stroke-miterlimit="10"/>
<path d="M361.407 246.247C361.413 249.39 360.369 252.446 358.439 254.927C356.519 257.387 354.177 259.487 351.523 261.129" stroke="black" stroke-width="0.7" stroke-miterlimit="10"/>
<path d="M359.285 261.025C361.902 259.533 364.102 257.407 365.683 254.844" stroke="black" stroke-width="0.7" stroke-miterlimit="10"/>
<path d="M121.724 197.42L125.737 223.914L109.249 229.271C105.969 270.192 132.662 259.2 146.419 248.589C153.819 242.131 160.059 225.569 156.717 211.404C153.553 197.99 148.79 179.417 145.111 171.863L143.624 174.037L142.138 176.212C142.888 176.345 144.701 184.352 146.18 191.514C147.358 197.218 148.323 202.387 148.371 202.611C148.505 203.244 144.658 206.525 140.275 207.272C124.629 211.814 123.697 198.291 125.187 190.961C125.187 190.961 124.454 186.694 122.112 187.841C119.77 188.987 117.178 193.385 121.724 197.42Z" fill="#21325B"/>
<path d="M125.737 223.914L121.724 197.42C117.178 193.385 119.77 188.987 122.112 187.841C124.454 186.694 125.187 190.961 125.187 190.961L137.762 180.019L142.138 176.212L143.624 174.037L145.111 171.863C145.111 171.863 138.865 166.393 121.652 171.363C109.512 175.308 106.095 190.63 106.586 195.208C107.917 207.635 108.361 214.42 109.249 229.271L125.737 223.914Z" fill="#21325B"/>
<path d="M146.18 191.514C144.701 184.352 142.888 176.345 142.138 176.212L137.762 180.019C140.214 181.683 142.663 185.112 143.581 186.619C143.95 187.048 145.467 190.061 146.18 191.514Z" fill="#21325B"/>
<path d="M382.697 150.908L387.435 176.946L402.327 175.047C418.377 210.242 392.29 212.463 376.241 210.175C367.368 208.266 356.348 196.624 354.916 182.069C353.56 168.284 354.035 148.998 355.019 140.23L355.08 141.405L357.141 142.581C356.492 143.098 357.141 157.774 357.141 157.774C354.916 168.774 359.777 169.482 359.805 169.71C359.883 170.353 364.471 171.275 368.746 169.628C384.603 165.438 381.156 152.738 377.451 146.912C377.451 146.912 376.767 142.673 379.289 142.467C381.812 142.261 385.599 144.857 382.697 150.908Z" fill="#4E231D"/>
<path d="M387.435 176.946L382.697 150.908C385.599 144.857 381.812 142.261 379.289 142.467C376.767 142.673 377.451 146.912 377.451 146.912C371.08 146.976 367.704 146.509 362.384 143.699L357.141 142.581L355.08 141.405L355.019 140.23C355.019 140.23 357.03 133.984 374.467 129.351C386.905 126.48 394.93 138.499 395.936 142.891C398.666 154.812 398.417 161.172 402.327 175.047L387.435 176.946Z" fill="#4E231D"/>
<path d="M357.141 157.774C357.141 157.774 356.492 143.098 357.141 142.581L362.384 143.699C360.655 146.499 358.461 152.774 358.461 152.774C358.461 152.774 357.335 156.086 357.141 157.774Z" fill="#4E231D"/>
</g>
<defs>
<clipPath id="clip0_1071_1868">
<rect width="468.118" height="295.708" fill="white" transform="translate(0.960938 0.274414)"/>
</clipPath>
</defs>
</svg>
