<svg width="19" height="16" viewBox="0 0 19 16" fill="none" xmlns="http://www.w3.org/2000/svg">
<path id="Vector" d="M18.0131 3.14062L15.4973 5.64806C14.9975 11.471 10.0826 15.9944 4.20966 15.9944C3.00176 15.9944 2.00211 15.8028 1.24405 15.4279C0.635935 15.1197 0.386021 14.7948 0.319379 14.6948C0.26424 14.611 0.22871 14.5159 0.215435 14.4166C0.202161 14.3172 0.211484 14.2161 0.242712 14.1208C0.273939 14.0255 0.326265 13.9385 0.395791 13.8662C0.465316 13.794 0.550252 13.7384 0.644265 13.7035C0.660926 13.6952 2.62689 12.9454 3.90143 11.5043C3.111 10.9415 2.41626 10.2552 1.84384 9.47168C0.702578 7.92224 -0.505327 5.23154 0.219414 1.21631C0.242197 1.09694 0.296794 0.985941 0.377439 0.895034C0.458085 0.804126 0.561781 0.736683 0.677587 0.69983C0.793752 0.66179 0.918147 0.656435 1.03716 0.684349C1.15617 0.712266 1.2652 0.772377 1.35235 0.858107C1.37734 0.891428 4.15135 3.62379 7.54181 4.5068V3.99865C7.54507 3.47027 7.65237 2.9477 7.85763 2.46079C8.06282 1.97388 8.36198 1.53216 8.73791 1.16086C9.11384 0.789551 9.55929 0.495936 10.0487 0.296769C10.5381 0.0976018 11.062 -0.00321399 11.5904 7.80992e-05C12.2838 0.0099689 12.9629 0.199325 13.5615 0.549698C14.16 0.900072 14.6577 1.39951 15.0058 1.99937H17.5382C17.6698 1.99895 17.7985 2.03749 17.9082 2.11013C18.0179 2.18277 18.1037 2.28626 18.1547 2.40755C18.2027 2.53065 18.2149 2.66482 18.1898 2.79455C18.1647 2.92428 18.1034 3.04427 18.0131 3.14062Z" fill="white"/>
</svg>
