<svg width="328" height="186" viewBox="0 0 328 186" fill="none" xmlns="http://www.w3.org/2000/svg">
<path d="M280.018 186.199C293.691 169.632 311.476 125.37 285.18 76.0673C256.762 22.7863 157.871 -12.4947 93.0674 24.2203C28.2639 60.9353 41.5549 157.634 50.4709 186.199H280.018V186.199Z" fill="url(#paint0_linear_1334_2650)"/>
<path d="M23.0111 186.199C23.0111 186.199 13.8591 159.253 27.1401 141.203C47.1156 114.056 91.3336 140.355 121.715 116.962C152.097 93.5692 208.456 63.6282 263.715 92.0282C318.973 120.428 309.822 171.174 306.52 186.199H23.0111Z" fill="#EAF0FF"/>
<path d="M12.6093 32.2722C21.8303 32.5382 54.2542 32.6217 63.0987 32.1162C71.9432 31.6107 71.0197 27.2922 66.2162 26.7812C61.4132 26.2702 63.2882 21.9417 57.3182 23.1987C51.3482 24.4557 49.9072 24.4532 44.3757 18.3452C38.8442 12.2372 29.1617 11.5892 25.5987 18.3452C23.1127 23.0587 22.0413 25.2422 16.9708 23.6287C11.9003 22.0152 8.83425 25.5452 7.34576 27.3167C6.02276 28.8917 1.23376 28.3597 1.00376 30.3957C0.773255 32.4317 11.2253 32.2327 12.6093 32.2722Z" fill="url(#paint1_linear_1334_2650)"/>
<path d="M233.577 186.199C233.577 186.199 235.277 179.595 216.429 168.532C197.582 157.469 192.958 133.362 162.907 133.692C132.856 134.022 123.445 174.971 131.04 186.199H233.577V186.199Z" fill="url(#paint2_linear_1334_2650)"/>
<path d="M95.6824 186.199C95.6824 186.199 97.3564 160.442 87.3949 143.681C75.1889 123.142 78.6294 103.939 94.6274 107.691C106.916 110.574 106.853 162.057 106.762 186.199H95.6824Z" fill="url(#paint3_linear_1334_2650)"/>
<path d="M88.4766 123.142C88.4766 123.142 105.119 146.056 101.383 186.199" stroke="#F9F9F9" stroke-width="0.5842" stroke-miterlimit="10" stroke-linecap="round"/>
<path d="M68.2976 186.199C71.9011 174.489 69.3786 159.175 55.8661 148.545C42.3536 137.915 59.4691 125.484 74.2426 132.69C89.0161 139.897 100.727 161.156 96.7631 186.199H68.2976V186.199Z" fill="url(#paint4_linear_1334_2650)"/>
<path d="M71 146.743C71 146.743 87.395 162.417 84.152 186.199" stroke="#F9F9F9" stroke-width="0.5842" stroke-miterlimit="10" stroke-linecap="round"/>
<path d="M111.537 97.5582H102.619V186.199H111.537V97.5582Z" fill="#423F63"/>
<path d="M82.5825 63.6428C77.2095 63.6428 72.8535 67.9988 72.8535 73.3718V97.5588H82.5825H132.713V63.6428H82.5825Z" fill="#F05757"/>
<path d="M142.442 97.5582H122.984V73.3712C122.984 67.9982 127.34 63.6422 132.713 63.6422C138.086 63.6422 142.442 67.9982 142.442 73.3712L142.442 97.5582Z" fill="#EE3A4C"/>
<path d="M144.377 97.5582H124.92V73.3712C124.92 67.9982 129.275 63.6422 134.649 63.6422C140.022 63.6422 144.378 67.9982 144.378 73.3712V97.5582H144.377Z" fill="#D2373A"/>
<path d="M122.984 97.5583H72.8535V99.9903H122.984V97.5583Z" fill="#EE3A4C"/>
<path d="M142.442 97.5583H122.984V99.9903H142.442V97.5583Z" fill="#D2373A"/>
<path d="M113.166 82.8754C115.256 82.8754 116.95 81.1814 116.95 79.0919C116.95 77.0023 115.256 75.3083 113.166 75.3083C111.077 75.3083 109.383 77.0023 109.383 79.0919C109.383 81.1814 111.077 82.8754 113.166 82.8754Z" fill="#F58A28"/>
<path d="M115.556 59.9009C115.556 58.8314 114.689 57.9639 113.619 57.9639H106.364C105.295 57.9639 104.428 58.8309 104.428 59.9009V62.9674C104.428 64.0369 105.295 64.9039 106.364 64.9039H110.774V79.0919C110.774 80.4124 111.845 81.4829 113.165 81.4829C114.486 81.4829 115.556 80.4124 115.556 79.0919V59.9009Z" fill="#FAB217"/>
<path d="M139.65 186.199C151.721 175.209 143.613 153.229 155.684 144.401C167.755 135.573 175.502 125.304 167.395 116.296C159.287 107.288 108.301 129.808 110.463 186.199H139.65Z" fill="url(#paint5_linear_1334_2650)"/>
<path d="M151.269 131.609C151.269 131.609 123.892 150.346 124.383 186.199" stroke="#F9F9F9" stroke-width="0.5842" stroke-miterlimit="10" stroke-linecap="round"/>
<path d="M119.651 186.199C118.029 162.958 123.795 138.456 135.325 121.52C146.855 104.585 134.964 97.5583 121.993 110.53C109.247 123.276 102.67 154.67 106.746 186.199H119.651Z" fill="url(#paint6_linear_1334_2650)"/>
<path d="M125.056 123.142C125.056 123.142 107.4 150.527 110.462 186.199" stroke="#F9F9F9" stroke-width="0.5842" stroke-miterlimit="10" stroke-linecap="round"/>
<path d="M247.601 67.7267H219.633V83.8137V166.66H251.995V186.199H256.975V166.66H274.984V186.199H279.963V100.089C279.963 82.2157 265.474 67.7267 247.601 67.7267Z" fill="#FAB217"/>
<path d="M274.983 166.66H270.004V186.199H274.983V166.66Z" fill="#F58A28"/>
<path d="M274.984 116.962H256.975V164.156H274.984V116.962Z" stroke="#FBC942" stroke-width="0.87635" stroke-miterlimit="10"/>
<path d="M224.026 166.66H219.047V186.199H224.026V166.66Z" fill="#FAB217"/>
<path d="M219.048 166.66H214.068V186.199H219.048V166.66Z" fill="#F58A28"/>
<path d="M219.634 67.7267C201.76 67.7267 187.271 82.2162 187.271 100.089V186.199H196.06V166.661H243.208V186.199H251.997V100.089C251.996 82.2157 237.507 67.7267 219.634 67.7267Z" fill="#F58A28"/>
<path d="M201.04 166.66H196.061V186.199H201.04V166.66Z" fill="#FAB217"/>
<path d="M243.208 108.595H196.061V114.458H243.208V108.595Z" fill="#BC5000"/>
<path d="M243.208 108.595H196.061V114.458H243.208V108.595Z" stroke="#FBC942" stroke-width="0.87635" stroke-miterlimit="10"/>
<path d="M243.209 164.156V116.962L196.061 116.962V164.156H243.209Z" stroke="#FBC942" stroke-width="0.87635" stroke-miterlimit="10"/>
<path d="M202.437 120.757H203.753L206.848 128.316H206.954L210.049 120.757H211.365V129.863H210.334V122.944H210.245L207.399 129.863H206.403L203.557 122.944H203.468V129.863H202.437V120.757ZM213.95 129.863H212.794L216.137 120.757H217.276L220.619 129.863H219.463L216.742 122.197H216.671L213.95 129.863ZM214.377 126.306H219.036V127.284H214.377V126.306ZM223.141 120.757V129.863H222.038V120.757H223.141ZM225.352 129.863V120.757H226.454V128.885H230.687V129.863H225.352Z" fill="#FBC942"/>
<path d="M185.602 26.8328C189.31 13.8808 203.014 0.82331 226.296 1.00181C254.434 1.21781 257.172 46.2433 244.789 47.2343C232.405 48.2248 237.754 8.43231 269.671 12.8903C301.589 17.3483 307.368 66.2778 301.258 85.1558C295.149 104.034 274.675 130.783 274.675 130.783" stroke="#4B57B5" stroke-width="0.83475" stroke-miterlimit="10" stroke-linecap="round" stroke-linejoin="round" stroke-dasharray="2.5 5.01 2.5 5.01 2.5 5.01"/>
<path d="M174.652 23.0066L163.82 53.9694L183.562 60.8753L194.393 29.9126L174.652 23.0066Z" fill="#EDF2FE"/>
<path d="M163.818 53.9648L181 42.8208L174.649 23.0018L163.818 53.9648Z" fill="#DDE7FF"/>
<path d="M163.818 53.9648L179.105 41.9363L174.649 23.0018L163.818 53.9648Z" fill="#EDF2FE"/>
<path d="M279.713 137.422C287.489 143.851 302.893 155.049 326.731 152.701" stroke="#4B57B5" stroke-width="0.83475" stroke-miterlimit="10" stroke-linecap="round" stroke-linejoin="round" stroke-dasharray="2.5 5.01 2.5 5.01 2.5 5.01"/>
<path d="M285.671 128.68L258.572 110.195L246.787 127.473L273.886 145.957L285.671 128.68Z" fill="#EDF2FE"/>
<path d="M258.574 110.199L264.885 129.682L285.673 128.684L258.574 110.199Z" fill="#DDE7FF"/>
<path d="M258.574 110.199L266.231 128.08L285.673 128.684L258.574 110.199Z" fill="#EDF2FE"/>
<path d="M88.9907 52.3998L61.2656 69.9297L72.4423 87.6066L100.167 70.0767L88.9907 52.3998Z" fill="#EDF2FE"/>
<path d="M61.2676 69.9354L81.6546 71.8814L88.9941 52.4064L61.2676 69.9354Z" fill="#DDE7FF"/>
<path d="M61.2676 69.9354L80.7191 70.0099L88.9941 52.4064L61.2676 69.9354Z" fill="#EDF2FE"/>
<path d="M67.0746 79.1178C66.7171 79.3343 66.3651 79.5583 66.0176 79.7888" stroke="#4B57B5" stroke-width="0.83475" stroke-linecap="round" stroke-linejoin="round"/>
<path d="M61.5285 83.3218C58.0245 86.4968 54.9365 90.2133 51.709 93.6993" stroke="#4B57B5" stroke-width="0.83475" stroke-linecap="round" stroke-linejoin="round" stroke-dasharray="2.86 5.72 2.86 5.72"/>
<path d="M49.737 95.7698C42.841 102.782 34.8515 108.111 20.727 104.739C14.405 103.23 9.32253 101.53 4.89453 100.036" stroke="#4B57B5" stroke-width="0.83475" stroke-linecap="round" stroke-linejoin="round" stroke-dasharray="2.86 5.72 2.86 5.72 2.86 5.72"/>
<path d="M2.188 99.1262C1.7875 98.9932 1.3915 98.8622 1 98.7347" stroke="#4B57B5" stroke-width="0.83475" stroke-linecap="round" stroke-linejoin="round"/>
<defs>
<linearGradient id="paint0_linear_1334_2650" x1="42.9338" y1="97.6609" x2="298.708" y2="97.6609" gradientUnits="userSpaceOnUse">
<stop offset="0.004" stop-color="#D8E3FF"/>
<stop offset="1" stop-color="#D2DFFF"/>
</linearGradient>
<linearGradient id="paint1_linear_1334_2650" x1="0.999855" y1="23.0016" x2="69.8087" y2="23.0016" gradientUnits="userSpaceOnUse">
<stop offset="0.004" stop-color="#D8E3FF"/>
<stop offset="1" stop-color="#D2DFFF"/>
</linearGradient>
<linearGradient id="paint2_linear_1334_2650" x1="158.959" y1="204.045" x2="199.174" y2="147.884" gradientUnits="userSpaceOnUse">
<stop stop-color="#B6CCBD"/>
<stop offset="1" stop-color="#D1E7D9"/>
</linearGradient>
<linearGradient id="paint3_linear_1334_2650" x1="90.9642" y1="118.642" x2="101.468" y2="186.684" gradientUnits="userSpaceOnUse">
<stop stop-color="#60BEC8"/>
<stop offset="1" stop-color="#4BA5AA"/>
</linearGradient>
<linearGradient id="paint4_linear_1334_2650" x1="85.2514" y1="186.094" x2="69.8435" y2="141.257" gradientUnits="userSpaceOnUse">
<stop stop-color="#B6CCBD"/>
<stop offset="1" stop-color="#D1E7D9"/>
</linearGradient>
<linearGradient id="paint5_linear_1334_2650" x1="152.125" y1="126.539" x2="120.385" y2="183.548" gradientUnits="userSpaceOnUse">
<stop stop-color="#60BEC8"/>
<stop offset="1" stop-color="#4BA5AA"/>
</linearGradient>
<linearGradient id="paint6_linear_1334_2650" x1="109.514" y1="188.369" x2="124.768" y2="122.885" gradientUnits="userSpaceOnUse">
<stop stop-color="#B6CCBD"/>
<stop offset="1" stop-color="#D1E7D9"/>
</linearGradient>
</defs>
</svg>
